<svg width="97" height="67" viewBox="0 0 97 67" fill="none" xmlns="http://www.w3.org/2000/svg">
<g clip-path="url(#clip0)">
<path d="M1.73645 66.8324C1.2318 66.8324 0.820312 66.4238 0.820312 65.9227V14.5782C0.820312 14.0771 1.2318 13.6685 1.73645 13.6685H32.0543V1.7421C32.0543 1.24099 32.4658 0.832397 32.9704 0.832397H64.678C65.1826 0.832397 65.5941 1.24099 65.5941 1.7421V28.2084H95.8964C96.4011 28.2084 96.8125 28.617 96.8125 29.1181V65.915C96.8125 66.4161 96.4011 66.8247 95.8964 66.8247H1.73645V66.8324ZM76.6887 65.6837H83.8857V49.5017H76.6887V65.6837ZM44.7792 65.6837H51.9763V49.5017H44.7792V65.6837ZM13.7549 65.6837H20.952V49.5017H13.7549V65.6837ZM84.1264 49.0237C84.2584 49.0237 84.3671 49.1317 84.3671 49.2627V65.013H94.988V30.0355H65.5786V65.013H76.2073V49.2627C76.2073 49.1317 76.316 49.0237 76.448 49.0237H84.1264ZM52.2248 49.0237C52.3567 49.0237 52.4654 49.1317 52.4654 49.2627V65.013H63.7541V29.1181L63.7774 28.9716V2.65181H33.8943V65.0053H44.3056V49.2627C44.3056 49.1317 44.4143 49.0237 44.5463 49.0237H52.2248ZM21.1927 49.0237C21.3246 49.0237 21.4333 49.1317 21.4333 49.2627V65.013H32.0543V15.4879H2.65258V65.0053H13.2735V49.2627C13.2735 49.1317 13.3822 49.0237 13.5142 49.0237H21.1927Z" fill="#4AABDE"/>
<path d="M39.3989 18.5871C39.2669 18.5871 39.1582 18.4791 39.1582 18.3481V10.816C39.1582 10.685 39.2669 10.577 39.3989 10.577H46.9842C47.1161 10.577 47.2248 10.685 47.2248 10.816V18.3481C47.2248 18.4791 47.1161 18.5871 46.9842 18.5871H39.3989ZM39.6396 18.1091H46.7435V11.055H39.6396V18.1091Z" fill="#4AABDE"/>
<path d="M50.9126 18.5871C50.7806 18.5871 50.6719 18.4791 50.6719 18.3481V10.816C50.6719 10.685 50.7806 10.577 50.9126 10.577H58.4978C58.6298 10.577 58.7385 10.685 58.7385 10.816V18.3481C58.7385 18.4791 58.6298 18.5871 58.4978 18.5871H50.9126ZM51.1532 18.1091H58.2572V11.055H51.1532V18.1091Z" fill="#4AABDE"/>
<path d="M39.3989 30.9143C39.2669 30.9143 39.1582 30.8064 39.1582 30.6753V23.1433C39.1582 23.0122 39.2669 22.9043 39.3989 22.9043H46.9842C47.1161 22.9043 47.2248 23.0122 47.2248 23.1433V30.6753C47.2248 30.8064 47.1161 30.9143 46.9842 30.9143H39.3989ZM39.6396 30.4441H46.7435V23.39H39.6396V30.4441Z" fill="#4AABDE"/>
<path d="M50.9126 30.9143C50.7806 30.9143 50.6719 30.8064 50.6719 30.6753V23.1433C50.6719 23.0122 50.7806 22.9043 50.9126 22.9043H58.4978C58.6298 22.9043 58.7385 23.0122 58.7385 23.1433V30.6753C58.7385 30.8064 58.6298 30.9143 58.4978 30.9143H50.9126ZM51.1532 30.4441H58.2572V23.39H51.1532V30.4441Z" fill="#4AABDE"/>
<path d="M39.3989 43.2494C39.2669 43.2494 39.1582 43.1415 39.1582 43.0104V35.4784C39.1582 35.3473 39.2669 35.2394 39.3989 35.2394H46.9842C47.1161 35.2394 47.2248 35.3473 47.2248 35.4784V43.0104C47.2248 43.1415 47.1161 43.2494 46.9842 43.2494H39.3989ZM39.6396 42.7714H46.7435V35.7174H39.6396V42.7714Z" fill="#4AABDE"/>
<path d="M50.9126 43.2494C50.7806 43.2494 50.6719 43.1415 50.6719 43.0104V35.4784C50.6719 35.3473 50.7806 35.2394 50.9126 35.2394H58.4978C58.6298 35.2394 58.7385 35.3473 58.7385 35.4784V43.0104C58.7385 43.1415 58.6298 43.2494 58.4978 43.2494H50.9126ZM51.1532 42.7714H58.2572V35.7174H51.1532V42.7714Z" fill="#4AABDE"/>
<path d="M7.80709 30.9143C7.6751 30.9143 7.56641 30.8064 7.56641 30.6753V23.1433C7.56641 23.0122 7.6751 22.9043 7.80709 22.9043H15.3924C15.5244 22.9043 15.633 23.0122 15.633 23.1433V30.6753C15.633 30.8064 15.5244 30.9143 15.3924 30.9143H7.80709ZM8.04777 30.4441H15.1517V23.39H8.04777V30.4441Z" fill="#4AABDE"/>
<path d="M19.3208 30.9143C19.1888 30.9143 19.0801 30.8064 19.0801 30.6753V23.1433C19.0801 23.0122 19.1888 22.9043 19.3208 22.9043H26.906C27.038 22.9043 27.1467 23.0122 27.1467 23.1433V30.6753C27.1467 30.8064 27.038 30.9143 26.906 30.9143H19.3208ZM19.5614 30.4441H26.6654V23.39H19.5614V30.4441Z" fill="#4AABDE"/>
<path d="M7.80709 43.2494C7.6751 43.2494 7.56641 43.1415 7.56641 43.0104V35.4784C7.56641 35.3473 7.6751 35.2394 7.80709 35.2394H15.3924C15.5244 35.2394 15.633 35.3473 15.633 35.4784V43.0104C15.633 43.1415 15.5244 43.2494 15.3924 43.2494H7.80709ZM8.04777 42.7714H15.1517V35.7174H8.04777V42.7714Z" fill="#4AABDE"/>
<path d="M19.3208 43.2494C19.1888 43.2494 19.0801 43.1415 19.0801 43.0104V35.4784C19.0801 35.3473 19.1888 35.2394 19.3208 35.2394H26.906C27.038 35.2394 27.1467 35.3473 27.1467 35.4784V43.0104C27.1467 43.1415 27.038 43.2494 26.906 43.2494H19.3208ZM19.5614 42.7714H26.6654V35.7174H19.5614V42.7714Z" fill="#4AABDE"/>
<path d="M70.7329 43.2494C70.6009 43.2494 70.4922 43.1415 70.4922 43.0104V35.4784C70.4922 35.3473 70.6009 35.2394 70.7329 35.2394H78.3182C78.4501 35.2394 78.5588 35.3473 78.5588 35.4784V43.0104C78.5588 43.1415 78.4501 43.2494 78.3182 43.2494H70.7329ZM70.9735 42.7714H78.0775V35.7174H70.9735V42.7714Z" fill="#4AABDE"/>
<path d="M82.2485 43.2494C82.1165 43.2494 82.0078 43.1415 82.0078 43.0104V35.4784C82.0078 35.3473 82.1165 35.2394 82.2485 35.2394H89.8338C89.9658 35.2394 90.0745 35.3473 90.0745 35.4784V43.0104C90.0745 43.1415 89.9658 43.2494 89.8338 43.2494H82.2485ZM82.4892 42.7714H89.5931V35.7174H82.4892V42.7714Z" fill="#4AABDE"/>
</g>
<defs>
<clipPath id="clip0">
<rect width="96" height="66" fill="white" transform="translate(0.820312 0.832397)"/>
</clipPath>
</defs>
</svg>
