<svg width="151" height="62" viewBox="0 0 151 62" fill="none" xmlns="http://www.w3.org/2000/svg">
<g clip-path="url(#clip0)">
<path d="M80.496 61.4928C79.5589 61.4928 78.6366 61.1929 77.8184 60.6306L73.9581 57.954C73.6681 57.7516 73.5565 57.3767 73.6978 57.0468C73.7648 56.8893 73.8317 56.7244 73.8912 56.5519C74.2705 55.5323 73.9284 54.7001 73.5714 54.1752C72.902 53.2005 71.6673 52.5258 70.5665 52.5258C69.726 52.5258 69.1384 52.9081 68.8334 53.6654C68.6847 54.0328 68.2682 54.2202 67.8963 54.0853C67.6508 53.9953 67.4128 53.9053 67.1748 53.8078C66.9665 53.7254 66.8103 53.5529 66.7434 53.343C66.6764 53.1331 66.7062 52.9006 66.8252 52.7132L67.2789 52.0009C67.6657 51.3936 67.6731 50.7414 67.3087 50.0666C66.6541 48.867 64.9732 47.8923 63.5525 47.8923C62.6972 47.8923 62.1245 48.2372 61.8344 48.9269L61.3881 49.9916C61.3063 50.194 61.1352 50.344 60.9269 50.4115C60.7187 50.4789 60.4956 50.4489 60.3096 50.329C60.1013 50.194 59.8931 50.0666 59.6923 49.9316C59.4022 49.7442 59.2832 49.3768 59.4022 49.0544C59.841 47.8473 59.7443 46.7527 59.1419 45.8754C58.4873 44.9308 57.2303 44.301 56.0105 44.301C55.1775 44.301 54.508 44.6009 54.1585 45.1257C53.9353 45.4631 53.4742 45.5606 53.1395 45.3356C50.7296 43.7387 47.6057 41.9692 42.6744 40.987C42.4735 40.9496 42.295 40.8221 42.1909 40.6422C42.0868 40.4622 42.057 40.2523 42.1091 40.0499L49.3015 14.8806C49.4131 14.4982 49.7924 14.2733 50.1792 14.3633L53.9353 15.248C54.456 15.368 54.9692 15.4279 55.4973 15.4279C57.2601 15.4279 59.008 14.7382 61.217 13.8609C63.2401 13.0587 65.531 12.1515 68.5731 11.4317C68.9004 11.3568 69.2276 11.5067 69.3838 11.7991C69.54 12.0915 69.488 12.4589 69.25 12.6913C69.0714 12.8713 68.9004 13.0737 68.7442 13.2986L63.0988 21.6134C63.917 22.738 65.0922 23.3303 66.5277 23.3303C68.9673 23.3303 71.8607 21.6059 73.7201 19.0342C73.8763 18.8168 74.1441 18.6969 74.4118 18.7343C76.1449 18.9593 77.9374 18.9218 79.7374 18.6144C79.9382 18.5769 80.1465 18.6294 80.3101 18.7568L105.681 38.6328C107.228 39.8399 107.741 41.9093 107.02 44.0236C106.358 45.9654 104.528 47.9298 101.932 47.9298C101.411 47.9298 100.883 47.8473 100.355 47.6899C100.638 48.897 100.482 50.164 99.8718 51.3337C98.89 53.2305 96.8966 54.4526 94.7917 54.4526C94.0479 54.4526 93.2967 54.3027 92.5752 54.0028C92.5603 54.79 92.3223 55.5773 91.8611 56.282C90.9165 57.7216 89.243 58.6213 87.4802 58.6213C86.7885 58.6213 85.8811 58.4788 84.929 57.954C84.8695 58.3439 84.7356 58.7337 84.5348 59.1086C83.7687 60.5406 82.1473 61.4928 80.496 61.4928ZM75.2821 57.0618L78.6589 59.401C79.239 59.7984 79.8564 60.0008 80.496 60.0008C81.6266 60.0008 82.7274 59.3635 83.2406 58.4038C83.4414 58.029 83.7018 57.2942 83.2183 56.537C83.0101 56.2146 83.077 55.7797 83.3819 55.5398C83.6869 55.2999 84.1183 55.3373 84.3786 55.6222C85.2712 56.6044 86.3497 57.1218 87.4877 57.1218C88.7372 57.1218 89.9719 56.4695 90.6339 55.4498C91.162 54.6401 91.2512 53.7254 90.8868 52.8632C90.7529 52.5558 90.8422 52.1959 91.1025 51.9859C91.3628 51.776 91.7273 51.7685 91.995 51.9635C92.8876 52.6157 93.8322 52.9456 94.7917 52.9456C96.3536 52.9456 97.8338 52.0309 98.5627 50.6214C99.2395 49.3168 99.1354 47.8398 98.2726 46.5877C98.0718 46.2953 98.1015 45.9054 98.347 45.6505C98.5924 45.3956 98.9792 45.3506 99.2767 45.5381C100.184 46.1229 101.077 46.4228 101.932 46.4228C103.806 46.4228 105.138 44.9682 105.629 43.5212C106.03 42.3516 106.015 40.7546 104.781 39.7874L79.6481 20.1364C77.9672 20.3913 76.2936 20.4363 74.6573 20.2563C72.5003 23.0379 69.3541 24.8149 66.5351 24.8149C64.4302 24.8149 62.6749 23.8102 61.5889 21.9808C61.4402 21.7334 61.4476 21.4185 61.6112 21.1785L66.8847 13.4111C64.8988 13.9959 63.2476 14.6482 61.7526 15.2405C59.3947 16.1777 57.5353 16.9124 55.4899 16.9124C54.8502 16.9124 54.2328 16.8375 53.5932 16.6875L50.5213 15.9678L43.7454 39.6825C48.1338 40.6647 51.0941 42.2391 53.4147 43.7311C54.0618 43.1388 54.9766 42.809 56.0179 42.809C57.7212 42.809 59.4319 43.6787 60.3617 45.0207C60.741 45.5606 61.098 46.3328 61.1575 47.3225C61.7526 46.7302 62.5856 46.4003 63.56 46.4003C65.5236 46.4003 67.6954 47.6674 68.6103 49.3468C68.9747 50.0141 69.1161 50.7039 69.0417 51.3711C69.4954 51.1537 70.0086 51.0338 70.5739 51.0338C72.1582 51.0338 73.854 51.956 74.7912 53.328C75.5722 54.4826 75.7432 55.8022 75.2821 57.0618Z" fill="#FF6E3A"/>
<path d="M106.64 42.854C106.409 42.8315 106.261 42.7865 106.127 42.659C105.978 42.5241 105.874 42.3142 105.874 42.1117C105.859 41.4444 105.666 40.4997 104.795 39.8175L79.6553 20.1364C77.9669 20.3913 76.2934 20.4363 74.6571 20.2564C72.5001 23.038 69.3538 24.8149 66.5349 24.8149C64.43 24.8149 62.6746 23.8102 61.5887 21.9808C61.4399 21.7334 61.4474 21.4185 61.611 21.1786L67.5316 12.4514C68.4464 11.1019 69.6885 10.3746 71.5629 10.0822L81.9908 8.47775C82.5189 8.39528 83.0842 8.35779 83.6792 8.35779C90.1948 8.35779 99.2765 13.3062 102.467 15.8328C102.586 15.9303 102.676 16.0653 102.72 16.2152L109.801 40.9871C109.868 41.2345 109.809 41.5044 109.637 41.6919C109.228 42.1642 108.083 42.854 106.64 42.854ZM79.8636 18.6069C80.0272 18.6069 80.1908 18.6669 80.3247 18.7719L81.314 19.5741L105.688 38.6479C106.528 39.3076 107.079 40.2373 107.265 41.3095C107.681 41.227 108.016 41.0696 108.247 40.9346L101.374 16.875C98.4955 14.6932 89.8229 9.8573 83.6792 9.8573C83.1586 9.8573 82.6677 9.89478 82.214 9.96226L71.786 11.5667C70.3133 11.7917 69.4357 12.294 68.7514 13.3062L63.106 21.6209C63.9242 22.7456 65.0994 23.3379 66.5349 23.3379C68.9745 23.3379 71.8678 21.6134 73.7273 19.0418C73.8835 18.8244 74.1513 18.7044 74.419 18.7419C76.1521 18.9668 77.9446 18.9293 79.7446 18.6219C79.7818 18.6069 79.819 18.6069 79.8636 18.6069Z" fill="#FF6E3A"/>
<path d="M83.8941 56.9868C83.7379 56.9868 83.5817 56.9418 83.4479 56.8368L76.9248 51.881C76.5976 51.6336 76.538 51.1687 76.7835 50.8388C77.0289 50.5089 77.4901 50.4414 77.8174 50.6964L84.3404 55.6522C84.6677 55.8997 84.7272 56.3645 84.4817 56.6944C84.3404 56.8818 84.1173 56.9868 83.8941 56.9868Z" fill="#FF6E3A"/>
<path d="M91.6012 53.4105C91.4376 53.4105 91.2739 53.358 91.1326 53.238L82.5716 46.1603C82.2592 45.8979 82.2071 45.4331 82.4675 45.1107C82.7278 44.7958 83.1889 44.7508 83.5088 45.0057L92.0698 52.0834C92.3822 52.3458 92.4342 52.8107 92.1739 53.133C92.0252 53.313 91.8169 53.4105 91.6012 53.4105Z" fill="#FF6E3A"/>
<path d="M99.1724 47.21C99.0162 47.21 98.86 47.1575 98.7261 47.0525L88.5734 39.2026C88.2536 38.9552 88.1867 38.4828 88.4395 38.1605C88.685 37.8381 89.1536 37.7706 89.4734 38.0255L99.6261 45.8754C99.946 46.1228 100.013 46.5952 99.76 46.9176C99.6113 47.1125 99.3956 47.21 99.1724 47.21Z" fill="#FF6E3A"/>
<path d="M35.2292 50.5464C34.5598 50.5464 33.8978 50.4489 33.2507 50.2615L27.0624 48.4621C26.8765 48.4096 26.7128 48.2822 26.6236 48.1097C26.5269 47.9373 26.5046 47.7348 26.5566 47.5474L37.3788 9.67731C37.4903 9.27994 37.8994 9.05502 38.2936 9.16748L50.6703 12.7588C50.8562 12.8113 51.0199 12.9387 51.1091 13.1112C51.2058 13.2836 51.2281 13.4861 51.1686 13.6735L42.139 45.3206C41.2613 48.3946 38.4201 50.5464 35.2292 50.5464ZM28.1855 47.2475L33.6673 48.837C34.1805 48.9869 34.7086 49.0619 35.2367 49.0619C37.7655 49.0619 40.0267 47.3525 40.7258 44.9083L49.5546 13.9884L38.5986 10.8094L28.1855 47.2475Z" fill="#FF6E3A"/>
<path d="M25.5156 54.648C25.4487 54.648 25.3817 54.6405 25.3073 54.618L1.35733 47.6602C1.17138 47.6078 1.00775 47.4803 0.918494 47.3079C0.821801 47.1354 0.799488 46.933 0.851553 46.7455L13.9199 1.03303C14.0315 0.635656 14.4406 0.41073 14.8348 0.523193L38.7922 7.48091C38.9782 7.53339 39.1418 7.66085 39.2311 7.8333C39.3278 8.00574 39.3501 8.20817 39.298 8.39561L26.2222 54.1081C26.133 54.438 25.8354 54.648 25.5156 54.648ZM2.47301 46.4381L25.0098 52.9835L37.6691 8.70301L15.1323 2.15766L2.47301 46.4381Z" fill="#FF6E3A"/>
<path d="M34.8725 47.8399C34.5378 47.8399 34.2106 47.7949 33.8907 47.6974C32.9833 47.435 32.2321 46.8277 31.7709 45.9955C31.3098 45.1632 31.2056 44.1961 31.466 43.2814C31.8974 41.7594 33.3031 40.6947 34.8725 40.6947C35.2072 40.6947 35.5345 40.7397 35.8543 40.8372C36.7618 41.0996 37.513 41.7069 37.9741 42.5391C38.4353 43.3713 38.5394 44.3385 38.2791 45.2532C37.8402 46.7827 36.4419 47.8399 34.8725 47.8399ZM34.8725 42.1867C33.9577 42.1867 33.1395 42.809 32.8866 43.6937C32.7304 44.226 32.7974 44.7884 33.0651 45.2757C33.3329 45.763 33.7717 46.1154 34.2998 46.2729C35.3783 46.5878 36.5535 45.9205 36.8584 44.8483C37.0146 44.316 36.9477 43.7537 36.6799 43.2664C36.4122 42.779 35.9733 42.4266 35.4452 42.2692C35.2593 42.2092 35.0659 42.1867 34.8725 42.1867Z" fill="#FF6E3A"/>
<path d="M21.1928 50.1416C20.8581 50.1416 20.5309 50.0966 20.211 49.9992C19.3036 49.7368 18.545 49.1294 18.0912 48.2972C17.6301 47.465 17.526 46.4978 17.7863 45.5831C18.2177 44.0611 19.6234 42.9965 21.1928 42.9965C21.5275 42.9965 21.8548 43.0414 22.1746 43.1389C24.049 43.6862 25.1424 45.6656 24.5994 47.5625C24.168 49.077 22.7622 50.1416 21.1928 50.1416ZM21.1928 44.4885C20.278 44.4885 19.4598 45.1108 19.2069 45.9955C19.0507 46.5278 19.1177 47.0901 19.3854 47.5775C19.6532 48.0648 20.092 48.4172 20.6201 48.5746C21.6986 48.8895 22.8738 48.2222 23.1788 47.1501C23.4911 46.048 22.8589 44.8858 21.7656 44.5709C21.5796 44.511 21.3862 44.4885 21.1928 44.4885Z" fill="#FF6E3A"/>
<path d="M12.8842 47.7273C12.557 47.7273 12.2223 47.6823 11.9024 47.5849C10.995 47.3224 10.2438 46.7151 9.78265 45.8829C9.3215 45.0507 9.21737 44.0835 9.47769 43.1688C9.91653 41.6468 11.3149 40.5822 12.8842 40.5822C13.2115 40.5822 13.5462 40.6271 13.866 40.7246C15.7404 41.2719 16.8338 43.2513 16.2908 45.1482C15.8594 46.6702 14.4536 47.7273 12.8842 47.7273ZM12.8842 42.0742C11.9694 42.0742 11.1512 42.6965 10.8983 43.5812C10.5859 44.6833 11.2182 45.8454 12.3115 46.1603C13.39 46.4752 14.5652 45.8079 14.8702 44.7358C15.1826 43.6337 14.5503 42.4715 13.457 42.1566C13.271 42.0967 13.0776 42.0742 12.8842 42.0742Z" fill="#FF6E3A"/>
<path d="M64.3768 56.252C64.3768 56.252 64.3694 56.252 64.3768 56.252C63.5884 56.252 62.7256 55.9821 61.7363 55.4348C59.8769 54.4076 58.9323 52.0459 59.6686 50.2765L60.4793 48.3421C61 47.1125 62.1157 46.4003 63.5512 46.4003C65.5148 46.4003 67.6867 47.6674 68.6015 49.3468C69.2263 50.4939 69.204 51.7235 68.5271 52.7957L68.423 52.9681C67.352 54.6551 66.3478 56.252 64.3768 56.252ZM63.5512 47.8923C62.6958 47.8923 62.1231 48.2372 61.833 48.9269L61.0223 50.8613C60.576 51.9185 61.2529 53.478 62.4355 54.1302C63.1942 54.5501 63.8413 54.76 64.3694 54.76C65.4776 54.76 66.1247 53.8228 67.166 52.1659L67.2701 51.9934C67.6569 51.3861 67.6643 50.7339 67.2999 50.0591C66.6528 48.867 64.9718 47.8923 63.5512 47.8923Z" fill="#FF6E3A"/>
<path d="M71.577 60.4657C71.0043 60.4657 70.3795 60.3457 69.6729 60.0983C68.6093 59.7234 67.687 58.8387 67.1515 57.6691C66.6532 56.5819 66.5713 55.4273 66.9284 54.5051L67.4416 53.1781C67.9622 51.821 69.1002 51.0413 70.5655 51.0413C72.1498 51.0413 73.8456 51.9635 74.7828 53.3355C75.5712 54.4901 75.7423 55.8172 75.2662 57.0843C74.6414 58.7562 73.7117 60.4657 71.577 60.4657ZM70.5655 52.5258C69.7101 52.5258 69.1151 52.9231 68.8176 53.7104L68.3044 55.0375C68.0961 55.5773 68.163 56.327 68.4903 57.0393C68.8548 57.834 69.4796 58.4488 70.1564 58.6888C70.6994 58.8762 71.1754 58.9737 71.577 58.9737C72.6109 58.9737 73.2134 58.3364 73.8902 56.552C74.2696 55.5323 73.9274 54.7001 73.5704 54.1752C72.901 53.2081 71.6663 52.5258 70.5655 52.5258Z" fill="#FF6E3A"/>
<path d="M57.2963 52.0984C56.5525 52.0984 55.7789 51.911 55.0575 51.5586C52.1939 50.164 52.0972 47.9073 52.417 45.673C52.6699 43.9336 54.0757 42.809 56.0095 42.809C57.75 42.809 59.4756 43.7012 60.3979 45.0882C61.0227 46.0254 61.5805 47.5999 60.7028 49.7967C60.1227 51.2587 58.8805 52.0984 57.2963 52.0984ZM56.0095 44.301C55.4368 44.301 54.0905 44.4584 53.8823 45.8904C53.5773 47.9748 53.7781 49.2868 55.7046 50.2165C56.2327 50.4714 56.7831 50.6064 57.3037 50.6064C57.9806 50.6064 58.888 50.3665 59.3417 49.2344C59.8475 47.9748 59.7954 46.8276 59.1855 45.9204C58.531 44.9533 57.2591 44.301 56.0095 44.301Z" fill="#FF6E3A"/>
<path d="M50.5588 47.1651C48.915 47.1651 47.234 46.2279 46.3712 44.8259C45.6274 43.6263 45.5679 42.2617 46.1853 41.0021C46.3489 40.6647 46.7357 40.5073 47.0853 40.6272C49.4579 41.4445 51.5703 42.5091 53.943 44.0911C54.2777 44.316 54.3744 44.7659 54.1587 45.1108C53.3257 46.4378 52.0463 47.1651 50.5588 47.1651ZM47.2935 42.2842C47.1373 43.019 47.3679 43.6263 47.6282 44.0461C48.2307 45.0208 49.4059 45.6806 50.5588 45.6806C51.1017 45.6806 51.8306 45.5306 52.4629 44.8933C50.6926 43.7687 49.0563 42.944 47.2935 42.2842Z" fill="#FF6E3A"/>
<path d="M116.413 50.5465C113.222 50.5465 110.388 48.3947 109.503 45.3132L100.458 13.6885C100.347 13.2912 100.57 12.8788 100.964 12.7663L113.341 9.17501C113.527 9.12253 113.728 9.14502 113.899 9.24249C114.07 9.33996 114.196 9.49741 114.248 9.68485L125.07 47.5549C125.122 47.7424 125.1 47.9448 125.011 48.1172C124.914 48.2897 124.758 48.4171 124.572 48.4696L118.384 50.269C117.744 50.4565 117.075 50.5465 116.413 50.5465ZM102.087 13.9884L110.923 44.9008C111.623 47.345 113.876 49.0544 116.413 49.0544C116.941 49.0544 117.469 48.9795 117.982 48.8295L123.464 47.24L113.051 10.802L102.087 13.9884Z" fill="#FF6E3A"/>
<path d="M126.127 54.6476C125.807 54.6476 125.509 54.4377 125.42 54.1078L112.352 8.39525C112.299 8.20781 112.322 8.00537 112.418 7.83293C112.515 7.66049 112.671 7.53303 112.857 7.48055L136.815 0.522827C137.209 0.410364 137.618 0.63529 137.73 1.03266L150.798 46.7452C150.91 47.1425 150.686 47.5549 150.292 47.6674L126.335 54.6251C126.26 54.6401 126.193 54.6476 126.127 54.6476ZM113.973 8.70265L126.632 52.9831L149.169 46.4378L136.51 2.15729L113.973 8.70265Z" fill="#FF6E3A"/>
<path d="M117.128 47.3899C116.823 47.3899 116.518 47.285 116.28 47.09L113.194 44.5633C112.918 44.3384 112.74 44.016 112.703 43.6561C112.666 43.2963 112.77 42.9439 112.993 42.6665L115.499 39.555C115.946 39.0002 116.838 38.9027 117.389 39.36L120.475 41.8867C120.751 42.1116 120.929 42.4415 120.966 42.7939C121.003 43.1538 120.899 43.5062 120.676 43.7836L118.17 46.8951C117.917 47.21 117.537 47.3899 117.128 47.3899ZM114.227 43.4987L117.106 45.8529L119.441 42.9514L116.563 40.5971L114.227 43.4987Z" fill="#FF6E3A"/>
<path d="M131.646 50.4415C131.437 50.4415 131.229 50.389 131.051 50.299L127.428 48.4921C126.759 48.1547 126.484 47.3375 126.818 46.6627L128.611 43.0114C128.931 42.3592 129.771 42.0668 130.426 42.3966L134.048 44.211C134.368 44.376 134.613 44.6534 134.732 44.9983C134.851 45.3432 134.822 45.7106 134.665 46.0404L132.873 49.6917C132.635 50.1416 132.159 50.4415 131.646 50.4415ZM128.187 47.2101L131.593 48.912L133.282 45.4781L129.875 43.7762L128.187 47.2101Z" fill="#FF6E3A"/>
<path d="M140.348 47.48C140.139 47.48 139.931 47.4275 139.752 47.3375L136.13 45.5306C135.81 45.3731 135.565 45.0882 135.446 44.7434C135.327 44.3985 135.357 44.0236 135.513 43.7012L137.305 40.0499C137.625 39.3976 138.473 39.1052 139.12 39.4351L142.743 41.242C143.412 41.5794 143.687 42.3966 143.352 43.0714L141.56 46.7227C141.329 47.195 140.868 47.48 140.348 47.48ZM136.889 44.2485L140.295 45.9505L141.984 42.5166L138.577 40.8146L136.889 44.2485Z" fill="#FF6E3A"/>
</g>
<defs>
<clipPath id="clip0">
<rect width="150" height="61" fill="white" transform="translate(0.820312 0.492798)"/>
</clipPath>
</defs>
</svg>
