<svg width="80" height="67" viewBox="0 0 80 67" fill="none" xmlns="http://www.w3.org/2000/svg">
<g clip-path="url(#clip0)">
<path d="M1.27442 66.8324C0.74966 66.8324 0.320312 66.4076 0.320312 65.8885C0.320312 65.3693 0.74966 64.9513 1.27442 64.9513H3.97318V28.9881H1.2676C0.74966 28.9881 0.320312 28.5633 0.320312 28.0442V20.4524C0.320312 19.9332 0.74966 19.5085 1.2676 19.5085H8.05539L16.7105 1.37178C16.8672 1.04141 17.208 0.832397 17.576 0.832397H62.0714C62.4394 0.832397 62.7734 1.04141 62.9301 1.37178L71.5852 19.5085H78.3662C78.891 19.5085 79.3203 19.9332 79.3203 20.4524V28.0509C79.3203 28.5701 78.891 28.9881 78.3662 28.9881H75.6674V64.9513H78.3662C78.891 64.9513 79.3135 65.3761 79.3135 65.8885C79.3135 66.4076 78.8841 66.8324 78.3662 66.8324H1.27442ZM59.7271 64.9446H73.7661V28.9881H63.0392V32.9862C63.0392 33.5054 62.6098 33.9302 62.0851 33.9302H59.7271V64.9446ZM40.7744 64.9446H57.8257V33.9234H40.7744V64.9446ZM21.815 64.9446H38.8662V33.9234H21.815V64.9446ZM5.87457 64.9446H19.9136V33.9234H17.5487C17.024 33.9234 16.6015 33.4987 16.6015 32.9795V28.9813H5.87457V64.9446ZM39.8203 10.3592C33.0393 10.3592 23.287 12.982 18.7073 17.3779L18.5029 17.5734V32.0423H61.1378V17.5734L60.9333 17.3779C56.3536 12.9887 46.6013 10.3592 39.8203 10.3592ZM63.0392 27.107H77.4189V21.3896H63.0392V27.107ZM2.22171 27.107H16.6015V21.3896H2.22171V27.107ZM39.8203 8.47812C46.2265 8.47812 57.5803 10.9862 62.7802 16.5621C62.9438 16.7374 63.0324 16.9666 63.0324 17.2026V19.5085H69.4794L61.4649 2.71349H18.1757L10.1612 19.5085H16.6015V17.2026C16.6015 16.9666 16.6901 16.7374 16.8536 16.5621C22.0535 10.9862 33.4142 8.47812 39.8203 8.47812Z" fill="#6378E7"/>
<path d="M45.5391 52.1612C45.0143 52.1612 44.5918 51.7365 44.5918 51.2241V47.6507C44.5918 47.1315 45.0211 46.7135 45.5391 46.7135C46.0638 46.7135 46.4932 47.1383 46.4932 47.6507V51.2241C46.4864 51.7432 46.0638 52.1612 45.5391 52.1612Z" fill="#6378E7"/>
<path d="M34.1084 52.1612C33.5836 52.1612 33.1543 51.7365 33.1543 51.2241V47.6507C33.1543 47.1315 33.5836 46.7135 34.1084 46.7135C34.6332 46.7135 35.0557 47.1383 35.0557 47.6507V51.2241C35.0557 51.7432 34.6332 52.1612 34.1084 52.1612Z" fill="#6378E7"/>
</g>
<defs>
<clipPath id="clip0">
<rect width="79" height="66" fill="white" transform="translate(0.320312 0.832397)"/>
</clipPath>
</defs>
</svg>
