<svg width="29" height="29" viewBox="0 0 29 29" fill="none" xmlns="http://www.w3.org/2000/svg">
<path d="M26.2135 25.4691H2.86159C2.70408 25.4691 2.58594 25.351 2.58594 25.1934V1.00911C2.58594 0.851562 2.70408 0.733398 2.86159 0.733398H26.2135C26.371 0.733398 26.4892 0.851562 26.4892 1.00911V25.1934C26.4498 25.351 26.371 25.4691 26.2135 25.4691ZM3.13725 24.9177H25.9378V1.24545H3.13725V24.9177Z" fill="black" fill-opacity="0.8"/>
<path d="M28.1033 28.5801H0.931588C0.81345 28.5801 0.695312 28.4619 0.695312 28.3044V25.1927C0.695312 25.0352 0.81345 24.917 0.970967 24.917H28.1427C28.3002 24.917 28.4183 25.0352 28.4183 25.1927V28.3044C28.3789 28.4619 28.2608 28.5801 28.1033 28.5801ZM1.20724 28.0287H27.867V25.429H1.20724V28.0287Z" fill="black" fill-opacity="0.8"/>
<path d="M22.1176 23.3018H6.95656C6.91718 23.3018 6.8778 23.3018 6.83842 23.2624L3.53056 21.6475C3.41243 21.6081 3.37305 21.4899 3.37305 21.3717C3.41243 21.2536 3.49118 21.1748 3.60932 21.1748H25.3467C25.4648 21.1748 25.583 21.2536 25.583 21.3717C25.6223 21.4899 25.5436 21.6081 25.4254 21.6475L22.1176 23.2624C22.1963 23.3018 22.157 23.3018 22.1176 23.3018ZM7.03532 22.7897H22.0388L24.2834 21.6869H4.7907L7.03532 22.7897Z" fill="black" fill-opacity="0.8"/>
<path d="M9.39828 21.6869H7.50808C7.35056 21.6869 7.23242 21.5687 7.23242 21.4111V20.2689C7.23242 20.1113 7.35056 19.9932 7.50808 19.9932H9.39828C9.5558 19.9932 9.67394 20.1113 9.67394 20.2689V21.4111C9.63456 21.5687 9.51642 21.6869 9.39828 21.6869ZM7.78373 21.1748H9.16201V20.584H7.78373V21.1748Z" fill="black" fill-opacity="0.8"/>
<path d="M21.5663 21.6869H19.676C19.5185 21.6869 19.4004 21.5687 19.4004 21.4111V20.2689C19.4004 20.1113 19.5185 19.9932 19.676 19.9932H21.5663C21.7238 19.9932 21.8419 20.1113 21.8419 20.2689V21.4111C21.8419 21.5687 21.7238 21.6869 21.5663 21.6869ZM19.9517 21.1748H21.33V20.584H19.9517V21.1748Z" fill="black" fill-opacity="0.8"/>
<path d="M22.1176 20.5449H6.95656C6.91718 20.5449 6.8778 20.5449 6.83842 20.5055L3.53056 18.8906C3.41243 18.8512 3.37305 18.7331 3.37305 18.6149C3.41243 18.4968 3.49118 18.418 3.60932 18.418H25.3467C25.4648 18.418 25.583 18.4968 25.583 18.6149C25.6223 18.7331 25.5436 18.8512 25.4254 18.8906L22.1176 20.5055C22.1963 20.5449 22.157 20.5449 22.1176 20.5449ZM7.03532 20.0329H22.0388L24.2834 18.93H4.7907L7.03532 20.0329Z" fill="black" fill-opacity="0.8"/>
<path d="M9.39828 18.93H7.50808C7.35056 18.93 7.23242 18.8119 7.23242 18.6543V17.512C7.23242 17.3545 7.35056 17.2363 7.50808 17.2363H9.39828C9.5558 17.2363 9.67394 17.3545 9.67394 17.512V18.6543C9.63456 18.8119 9.51642 18.93 9.39828 18.93ZM7.78373 18.418H9.16201V17.8272H7.78373V18.418Z" fill="black" fill-opacity="0.8"/>
<path d="M21.5663 18.93H19.676C19.5185 18.93 19.4004 18.8119 19.4004 18.6543V17.512C19.4004 17.3545 19.5185 17.2363 19.676 17.2363H21.5663C21.7238 17.2363 21.8419 17.3545 21.8419 17.512V18.6543C21.8419 18.8119 21.7238 18.93 21.5663 18.93ZM19.9517 18.418H21.33V17.8272H19.9517V18.418Z" fill="black" fill-opacity="0.8"/>
<path d="M22.1176 17.7881H6.95656C6.91718 17.7881 6.8778 17.7881 6.83842 17.7487L3.53056 16.1338C3.41243 16.0944 3.37305 15.9762 3.37305 15.8581C3.41243 15.7399 3.49118 15.6611 3.60932 15.6611H25.3467C25.4648 15.6611 25.583 15.7399 25.583 15.8581C25.6223 15.9762 25.5436 16.0944 25.4254 16.1338L22.1176 17.7487C22.1963 17.7881 22.157 17.7881 22.1176 17.7881ZM7.03532 17.276H22.0388L24.2834 16.1732H4.7907L7.03532 17.276Z" fill="black" fill-opacity="0.8"/>
<path d="M9.39828 16.1732H7.50808C7.35056 16.1732 7.23242 16.055 7.23242 15.8975V14.7552C7.23242 14.5977 7.35056 14.4795 7.50808 14.4795H9.39828C9.5558 14.4795 9.67394 14.5977 9.67394 14.7552V15.8975C9.63456 16.055 9.51642 16.1732 9.39828 16.1732ZM7.78373 15.6611H9.16201V15.0703H7.78373V15.6611Z" fill="black" fill-opacity="0.8"/>
<path d="M21.5663 16.1732H19.676C19.5185 16.1732 19.4004 16.055 19.4004 15.8975V14.7552C19.4004 14.5977 19.5185 14.4795 19.676 14.4795H21.5663C21.7238 14.4795 21.8419 14.5977 21.8419 14.7552V15.8975C21.8419 16.055 21.7238 16.1732 21.5663 16.1732ZM19.9517 15.6611H21.33V15.0703H19.9517V15.6611Z" fill="black" fill-opacity="0.8"/>
<path d="M22.1176 15.0303H6.95656C6.91718 15.0303 6.8778 15.0303 6.83842 14.9909L3.53056 13.376C3.41243 13.3366 3.37305 13.2184 3.37305 13.1003C3.41243 12.9821 3.49118 12.9033 3.60932 12.9033H25.3467C25.4648 12.9033 25.583 12.9821 25.583 13.1003C25.6223 13.2184 25.5436 13.3366 25.4254 13.376L22.1176 14.9909C22.1963 15.0303 22.157 15.0303 22.1176 15.0303ZM7.03532 14.5182H22.0388L24.2834 13.4154H4.7907L7.03532 14.5182Z" fill="black" fill-opacity="0.8"/>
<path d="M9.39828 13.4163H7.50808C7.35056 13.4163 7.23242 13.2982 7.23242 13.1406V11.9984C7.23242 11.8408 7.35056 11.7227 7.50808 11.7227H9.39828C9.5558 11.7227 9.67394 11.8408 9.67394 11.9984V13.1406C9.63456 13.2982 9.51642 13.4163 9.39828 13.4163ZM7.78373 12.9043H9.16201V12.3135H7.78373V12.9043Z" fill="black" fill-opacity="0.8"/>
<path d="M21.5663 13.4163H19.676C19.5185 13.4163 19.4004 13.2982 19.4004 13.1406V11.9984C19.4004 11.8408 19.5185 11.7227 19.676 11.7227H21.5663C21.7238 11.7227 21.8419 11.8408 21.8419 11.9984V13.1406C21.8419 13.2982 21.7238 13.4163 21.5663 13.4163ZM19.9517 12.9043H21.33V12.3135H19.9517V12.9043Z" fill="black" fill-opacity="0.8"/>
<path d="M22.1176 12.2734H6.95656C6.91718 12.2734 6.8778 12.2734 6.83842 12.234L3.53056 10.6191C3.41243 10.5797 3.37305 10.4616 3.37305 10.3434C3.41243 10.2253 3.49118 10.1465 3.60932 10.1465H25.3467C25.4648 10.1465 25.583 10.2253 25.583 10.3434C25.6223 10.4616 25.5436 10.5797 25.4254 10.6191L22.1176 12.234C22.1963 12.2734 22.157 12.2734 22.1176 12.2734ZM7.03532 11.7614H22.0388L24.2834 10.6585H4.7907L7.03532 11.7614Z" fill="black" fill-opacity="0.8"/>
<path d="M9.39828 10.6585H7.50808C7.35056 10.6585 7.23242 10.5404 7.23242 10.3828V9.24056C7.23242 9.08301 7.35056 8.96484 7.50808 8.96484H9.39828C9.5558 8.96484 9.67394 9.08301 9.67394 9.24056V10.3828C9.63456 10.5404 9.51642 10.6585 9.39828 10.6585ZM7.78373 10.1465H9.16201V9.55566H7.78373V10.1465Z" fill="black" fill-opacity="0.8"/>
<path d="M21.5663 10.6585H19.676C19.5185 10.6585 19.4004 10.5404 19.4004 10.3828V9.24056C19.4004 9.08301 19.5185 8.96484 19.676 8.96484H21.5663C21.7238 8.96484 21.8419 9.08301 21.8419 9.24056V10.3828C21.8419 10.5404 21.7238 10.6585 21.5663 10.6585ZM19.9517 10.1465H21.33V9.55566H19.9517V10.1465Z" fill="black" fill-opacity="0.8"/>
<path d="M22.1173 9.51661H6.95624C6.91686 9.51661 6.87748 9.51661 6.83811 9.47722L3.53025 7.8623C3.45149 7.82291 3.41211 7.70475 3.41211 7.58659C3.45149 7.46842 3.53025 7.38965 3.64838 7.38965H25.3857C25.5039 7.38965 25.622 7.46842 25.622 7.58659C25.7008 7.70475 25.622 7.82291 25.5039 7.8623L22.196 9.47722C22.196 9.51661 22.1566 9.51661 22.1173 9.51661ZM7.035 9.00456H22.0385L24.2831 7.9017H4.79038L7.035 9.00456Z" fill="black" fill-opacity="0.8"/>
<path d="M9.39828 7.90072H7.50808C7.35056 7.90072 7.23242 7.78255 7.23242 7.625V6.48275C7.23242 6.32519 7.35056 6.20703 7.50808 6.20703H9.39828C9.5558 6.20703 9.67394 6.32519 9.67394 6.48275V7.625C9.63456 7.78255 9.51642 7.90072 9.39828 7.90072ZM7.78373 7.38867H9.16201V6.79786H7.78373V7.38867Z" fill="black" fill-opacity="0.8"/>
<path d="M21.5663 7.90072H19.676C19.5185 7.90072 19.4004 7.78255 19.4004 7.625V6.48275C19.4004 6.32519 19.5185 6.20703 19.676 6.20703H21.5663C21.7238 6.20703 21.8419 6.32519 21.8419 6.48275V7.625C21.8419 7.78255 21.7238 7.90072 21.5663 7.90072ZM19.9517 7.38867H21.33V6.79786H19.9517V7.38867Z" fill="black" fill-opacity="0.8"/>
<path d="M22.1176 6.7588H6.95656C6.91718 6.7588 6.8778 6.75881 6.83842 6.71942L3.53056 5.1045C3.41243 5.06512 3.37305 4.94695 3.37305 4.82879C3.41243 4.71062 3.49118 4.63184 3.60932 4.63184H25.3467C25.4648 4.63184 25.583 4.71062 25.583 4.82879C25.6223 4.94695 25.5436 5.06512 25.4254 5.1045L22.1176 6.71942C22.1963 6.75881 22.157 6.7588 22.1176 6.7588ZM7.03532 6.24675H22.0388L24.2834 5.14389H4.7907L7.03532 6.24675Z" fill="black" fill-opacity="0.8"/>
<path d="M9.39828 5.1439H7.50808C7.35056 5.1439 7.23242 5.02574 7.23242 4.86819V3.72591C7.23242 3.56836 7.35056 3.4502 7.50808 3.4502H9.39828C9.5558 3.4502 9.67394 3.56836 9.67394 3.72591V4.86819C9.63456 5.02574 9.51642 5.1439 9.39828 5.1439ZM7.78373 4.63185H9.16201V4.04103H7.78373V4.63185Z" fill="black" fill-opacity="0.8"/>
<path d="M21.5663 5.1439H19.676C19.5185 5.1439 19.4004 5.02574 19.4004 4.86819V3.72591C19.4004 3.56836 19.5185 3.4502 19.676 3.4502H21.5663C21.7238 3.4502 21.8419 3.56836 21.8419 3.72591V4.86819C21.8419 5.02574 21.7238 5.1439 21.5663 5.1439ZM19.9517 4.63185H21.33V4.04103H19.9517V4.63185Z" fill="black" fill-opacity="0.8"/>
<path d="M22.1176 4.00193H6.95656C6.91718 4.00193 6.8778 4.00194 6.83842 3.96255L3.53056 2.34765C3.41243 2.30826 3.37305 2.1901 3.37305 2.07194C3.41243 1.95377 3.49118 1.875 3.60932 1.875H25.3467C25.4648 1.875 25.583 1.95377 25.583 2.07194C25.6223 2.1901 25.5436 2.30826 25.4254 2.34765L22.1176 3.96255C22.1963 4.00194 22.157 4.00193 22.1176 4.00193ZM7.03532 3.4899H22.0388L24.2834 2.38703H4.7907L7.03532 3.4899Z" fill="black" fill-opacity="0.8"/>
<path d="M9.39828 2.38705H7.50808C7.35056 2.38705 7.23242 2.26888 7.23242 2.11133V0.969074C7.23242 0.811522 7.35056 0.693359 7.50808 0.693359H9.39828C9.5558 0.693359 9.67394 0.811522 9.67394 0.969074V2.11133C9.63456 2.26888 9.51642 2.38705 9.39828 2.38705ZM7.78373 1.87501H9.16201V1.28419H7.78373V1.87501Z" fill="black" fill-opacity="0.8"/>
<path d="M21.5663 2.38705H19.676C19.5185 2.38705 19.4004 2.26888 19.4004 2.11133V0.969074C19.4004 0.811522 19.5185 0.693359 19.676 0.693359H21.5663C21.7238 0.693359 21.8419 0.811522 21.8419 0.969074V2.11133C21.8419 2.26888 21.7238 2.38705 21.5663 2.38705ZM19.9517 1.87501H21.33V1.28419H19.9517V1.87501Z" fill="black" fill-opacity="0.8"/>
</svg>
