<svg width="29" height="29" viewBox="0 0 29 29" fill="none" xmlns="http://www.w3.org/2000/svg">
<path d="M26.6062 28.5599H2.50612C1.56102 28.5599 0.773438 27.7721 0.773438 26.8268C0.773438 25.8815 1.56102 25.0938 2.50612 25.0938H26.6062C27.5513 25.0938 28.3389 25.8815 28.3389 26.8268C28.3389 27.7721 27.5513 28.5599 26.6062 28.5599ZM2.5455 25.6452C1.87605 25.6452 1.32474 26.1966 1.32474 26.8662C1.32474 27.5358 1.87605 28.0872 2.5455 28.0872H26.6456C27.3151 28.0872 27.8664 27.5358 27.8664 26.8662C27.8664 26.1966 27.3151 25.6452 26.6456 25.6452H2.5455Z" fill="black" fill-opacity="0.8"/>
<path d="M26.1343 25.6456H24.4804C24.3229 25.6456 24.2047 25.5274 24.2047 25.3698V2.80046H4.79075V25.3698C4.79075 25.5274 4.67262 25.6456 4.5151 25.6456H2.86117C2.70365 25.6456 2.58552 25.5274 2.58552 25.3698V2.80046H0.970966C0.813449 2.80046 0.695312 2.6823 0.695312 2.52474V0.988607C0.695312 0.831055 0.813449 0.712891 0.970966 0.712891H27.9851C28.1427 0.712891 28.2608 0.831055 28.2608 0.988607V2.52474C28.2608 2.6823 28.1427 2.80046 27.9851 2.80046H26.2918V25.3698C26.41 25.5274 26.2918 25.6456 26.1343 25.6456ZM24.756 25.1335H25.8587V2.52474C25.8587 2.36719 25.9768 2.24903 26.1343 2.24903H27.8276V1.22494H1.32538V2.24903H2.93993C3.09745 2.24903 3.21558 2.36719 3.21558 2.52474V25.1335H4.31821V2.52474C4.31821 2.36719 4.43634 2.24903 4.59386 2.24903H24.5198C24.6773 2.24903 24.7954 2.36719 24.7954 2.52474V25.1335H24.756Z" fill="black" fill-opacity="0.8"/>
<path d="M6.24794 23.1244C5.1847 23.1244 4.31836 22.2578 4.31836 21.1943C4.31836 21.0368 4.4365 20.9186 4.59401 20.9186C4.75153 20.9186 4.86967 21.0368 4.86967 21.1943C4.86967 21.9821 5.49974 22.6123 6.28732 22.6123C7.07491 22.6123 7.70497 21.9821 7.70497 21.1943V19.8945C7.70497 19.737 7.82312 19.6188 7.98063 19.6188C8.13815 19.6188 8.25629 19.737 8.25629 19.8945C8.25629 20.6823 8.88635 21.3125 9.67394 21.3125C10.4615 21.3125 11.0916 20.6823 11.0916 19.8945V18.5553C11.0916 18.3978 11.2097 18.2796 11.3672 18.2796C11.5248 18.2796 11.6429 18.3978 11.6429 18.5553C11.6429 19.3431 12.273 19.9733 13.0606 19.9733C13.8481 19.9733 14.4782 19.3431 14.4782 18.5553V17.2555C14.4782 17.098 14.5963 16.9798 14.7539 16.9798C14.9114 16.9798 15.0295 17.098 15.0295 17.2555C15.0295 18.0433 15.6596 18.6735 16.4472 18.6735C17.2348 18.6735 17.8648 18.0433 17.8648 17.2555V15.9163C17.8648 15.7588 17.983 15.6406 18.1405 15.6406C18.298 15.6406 18.4161 15.7588 18.4161 15.9163C18.4161 16.7041 19.0462 17.3343 19.8338 17.3343C20.6214 17.3343 21.2514 16.7041 21.2514 15.9163V14.6165C21.2514 14.459 21.3696 14.3408 21.5271 14.3408C21.6846 14.3408 21.8028 14.459 21.8028 14.6165C21.8028 15.4043 22.4328 16.0345 23.2204 16.0345C24.008 16.0345 24.6381 15.4043 24.6381 14.6165C24.6381 14.459 24.7562 14.3408 24.9137 14.3408C25.0712 14.3408 25.1894 14.459 25.1894 14.6165C25.1894 15.68 24.323 16.5466 23.2598 16.5466C22.7085 16.5466 22.1965 16.3102 21.8421 15.9557C21.8421 17.0192 20.9758 17.8858 19.9125 17.8858C19.3612 17.8858 18.8493 17.6494 18.4949 17.2949C18.4949 18.3584 17.6285 19.2249 16.5653 19.2249C16.014 19.2249 15.5021 18.9886 15.1477 18.6341C15.1477 19.6976 14.2813 20.5641 13.2181 20.5641C12.6668 20.5641 12.1548 20.3278 11.8004 19.9733C11.8004 21.0368 10.9341 21.9033 9.87084 21.9033C9.31953 21.9033 8.80759 21.667 8.45318 21.3125C8.13815 22.2578 7.31118 23.1244 6.24794 23.1244Z" fill="black" fill-opacity="0.8"/>
<path d="M7.90066 20.1706C7.74314 20.1706 7.625 20.0524 7.625 19.8949V13.8685C7.625 13.7109 7.74314 13.5928 7.90066 13.5928C8.05817 13.5928 8.17631 13.7109 8.17631 13.8685V19.8949C8.13693 20.0524 8.01879 20.1706 7.90066 20.1706Z" fill="black" fill-opacity="0.8"/>
<path d="M11.2092 18.8311C11.0517 18.8311 10.9336 18.7129 10.9336 18.5554V6.58138C10.9336 6.42383 11.0517 6.30566 11.2092 6.30566C11.3668 6.30566 11.4849 6.42383 11.4849 6.58138V18.5947C11.4849 18.7129 11.3668 18.8311 11.2092 18.8311Z" fill="black" fill-opacity="0.8"/>
<path d="M14.5569 17.4925C14.3994 17.4925 14.2812 17.3744 14.2812 17.2168V12.057C14.2812 11.8994 14.3994 11.7812 14.5569 11.7812C14.7144 11.7812 14.8326 11.8994 14.8326 12.057V17.2562C14.7932 17.3744 14.675 17.4925 14.5569 17.4925Z" fill="black" fill-opacity="0.8"/>
<path d="M17.8655 16.1927C17.708 16.1927 17.5898 16.0746 17.5898 15.917V9.22103C17.5898 9.06348 17.708 8.94531 17.8655 8.94531C18.023 8.94531 18.1412 9.06348 18.1412 9.22103V15.917C18.1412 16.0746 18.023 16.1927 17.8655 16.1927Z" fill="black" fill-opacity="0.8"/>
<path d="M21.1721 14.8532C21.0146 14.8532 20.8965 14.735 20.8965 14.5775V4.88802C20.8965 4.73047 21.0146 4.6123 21.1721 4.6123C21.3297 4.6123 21.4478 4.73047 21.4478 4.88802V14.6169C21.4478 14.735 21.3297 14.8532 21.1721 14.8532Z" fill="black" fill-opacity="0.8"/>
</svg>
