<svg width="29" height="29" viewBox="0 0 29 29" fill="none" xmlns="http://www.w3.org/2000/svg">
<path d="M24.4399 26.9252H4.51393C4.35642 26.9252 4.23828 26.807 4.23828 26.6495V2.58333C4.23828 2.42578 4.35642 2.30762 4.51393 2.30762H24.4399C24.5974 2.30762 24.7155 2.42578 24.7155 2.58333V26.6495C24.6761 26.8464 24.558 26.9252 24.4399 26.9252ZM4.75022 26.4131H24.1642V2.85905H4.75022V26.4131Z" fill="black" fill-opacity="0.8"/>
<path d="M26.0563 26.9252H2.82253C2.66501 26.9252 2.54688 26.807 2.54688 26.6495V2.58333C2.54688 2.42578 2.66501 2.30762 2.82253 2.30762H26.0563C26.2138 2.30762 26.332 2.42578 26.332 2.58333V26.6495C26.332 26.8464 26.2138 26.9252 26.0563 26.9252ZM3.09819 26.4131H25.7806V2.85905H3.09819V26.4131Z" fill="black" fill-opacity="0.8"/>
<path d="M27.9851 2.85904H0.970966C0.813449 2.85904 0.695312 2.74088 0.695312 2.58333V1.0472C0.695312 0.889647 0.813449 0.771484 0.970966 0.771484H27.9851C28.1426 0.771484 28.2608 0.889647 28.2608 1.0472V2.58333C28.2214 2.74088 28.1033 2.85904 27.9851 2.85904ZM1.20724 2.34699H27.7095V1.32291H1.20724V2.34699Z" fill="black" fill-opacity="0.8"/>
<path d="M27.9851 28.5006H0.970966C0.813449 28.5006 0.695312 28.3825 0.695312 28.2249V26.6888C0.695312 26.5312 0.813449 26.4131 0.970966 26.4131H27.9851C28.1426 26.4131 28.2608 26.5312 28.2608 26.6888V28.2249C28.2214 28.3825 28.1033 28.5006 27.9851 28.5006ZM1.20724 27.9886H27.7095V26.9251H1.20724V27.9886Z" fill="black" fill-opacity="0.8"/>
<path d="M23.219 22.6315H5.73464C5.57712 22.6315 5.45898 22.5134 5.45898 22.3558V4.51302C5.45898 4.35547 5.57712 4.2373 5.73464 4.2373H23.219C23.3765 4.2373 23.4947 4.35547 23.4947 4.51302V22.3558C23.4553 22.5134 23.3372 22.6315 23.219 22.6315ZM5.9709 22.1195H22.9434V4.78875H5.9709V22.1195Z" fill="black" fill-opacity="0.8"/>
<path d="M7.94167 5.77345C7.78415 5.77345 7.66602 5.65527 7.66602 5.49772V4.51302C7.66602 4.35547 7.78415 4.2373 7.94167 4.2373C8.09919 4.2373 8.21734 4.35547 8.21734 4.51302V5.49772C8.21734 5.65527 8.09919 5.77345 7.94167 5.77345Z" fill="black" fill-opacity="0.8"/>
<path d="M20.9358 5.77345C20.7783 5.77345 20.6602 5.65527 20.6602 5.49772V4.51302C20.6602 4.35547 20.7783 4.2373 20.9358 4.2373C21.0933 4.2373 21.2115 4.35547 21.2115 4.51302V5.49772C21.2115 5.65527 21.0933 5.77345 20.9358 5.77345Z" fill="black" fill-opacity="0.8"/>
<path d="M23.219 7.03387H5.73464C5.57712 7.03387 5.45898 6.9157 5.45898 6.75815C5.45898 6.6006 5.57712 6.48242 5.73464 6.48242H23.219C23.3765 6.48242 23.4947 6.6006 23.4947 6.75815C23.4947 6.9157 23.3372 7.03387 23.219 7.03387Z" fill="black" fill-opacity="0.8"/>
<path d="M7.94167 7.97948C7.78415 7.97948 7.66602 7.86132 7.66602 7.70377V6.71907C7.66602 6.56152 7.78415 6.44336 7.94167 6.44336C8.09919 6.44336 8.21734 6.56152 8.21734 6.71907V7.70377C8.21734 7.86132 8.09919 7.97948 7.94167 7.97948Z" fill="black" fill-opacity="0.8"/>
<path d="M20.9358 7.97948C20.7783 7.97948 20.6602 7.86132 20.6602 7.70377V6.71907C20.6602 6.56152 20.7783 6.44336 20.9358 6.44336C21.0933 6.44336 21.2115 6.56152 21.2115 6.71907V7.70377C21.2115 7.86132 21.0933 7.97948 20.9358 7.97948Z" fill="black" fill-opacity="0.8"/>
<path d="M23.219 9.23991H5.73464C5.57712 9.23991 5.45898 9.12175 5.45898 8.96419C5.45898 8.80664 5.57712 8.68848 5.73464 8.68848H23.219C23.3765 8.68848 23.4947 8.80664 23.4947 8.96419C23.4553 9.12175 23.3372 9.23991 23.219 9.23991Z" fill="black" fill-opacity="0.8"/>
<path d="M7.94167 10.2246C7.78415 10.2246 7.66602 10.1064 7.66602 9.9489V8.96419C7.66602 8.80664 7.78415 8.68848 7.94167 8.68848C8.09919 8.68848 8.21734 8.80664 8.21734 8.96419V9.9489C8.21734 10.1064 8.09919 10.2246 7.94167 10.2246Z" fill="black" fill-opacity="0.8"/>
<path d="M20.9358 10.2246C20.7783 10.2246 20.6602 10.1064 20.6602 9.9489V8.96419C20.6602 8.80664 20.7783 8.68848 20.9358 8.68848C21.0933 8.68848 21.2115 8.80664 21.2115 8.96419V9.9489C21.2115 10.1064 21.0933 10.2246 20.9358 10.2246Z" fill="black" fill-opacity="0.8"/>
<path d="M23.219 11.485H5.73464C5.57712 11.485 5.45898 11.3669 5.45898 11.2093C5.45898 11.0518 5.57712 10.9336 5.73464 10.9336H23.219C23.3765 10.9336 23.4947 11.0518 23.4947 11.2093C23.4553 11.3669 23.3372 11.485 23.219 11.485Z" fill="black" fill-opacity="0.8"/>
<path d="M7.94167 12.4697C7.78415 12.4697 7.66602 12.3516 7.66602 12.194V11.2093C7.66602 11.0518 7.78415 10.9336 7.94167 10.9336C8.09919 10.9336 8.21734 11.0518 8.21734 11.2093V12.194C8.21734 12.3516 8.09919 12.4697 7.94167 12.4697Z" fill="black" fill-opacity="0.8"/>
<path d="M20.9358 12.4697C20.7783 12.4697 20.6602 12.3516 20.6602 12.194V11.2093C20.6602 11.0518 20.7783 10.9336 20.9358 10.9336C21.0933 10.9336 21.2115 11.0518 21.2115 11.2093V12.194C21.2115 12.3516 21.0933 12.4697 20.9358 12.4697Z" fill="black" fill-opacity="0.8"/>
<path d="M23.219 13.7301H5.73464C5.57712 13.7301 5.45898 13.612 5.45898 13.4544C5.45898 13.2969 5.57712 13.1787 5.73464 13.1787H23.219C23.3765 13.1787 23.4947 13.2969 23.4947 13.4544C23.4553 13.612 23.3372 13.7301 23.219 13.7301Z" fill="black" fill-opacity="0.8"/>
<path d="M7.94167 14.6758C7.78415 14.6758 7.66602 14.5576 7.66602 14.4001V13.4154C7.66602 13.2578 7.78415 13.1396 7.94167 13.1396C8.09919 13.1396 8.21734 13.2578 8.21734 13.4154V14.4001C8.21734 14.5576 8.09919 14.6758 7.94167 14.6758Z" fill="black" fill-opacity="0.8"/>
<path d="M20.9358 14.6758C20.7783 14.6758 20.6602 14.5576 20.6602 14.4001V13.4154C20.6602 13.2578 20.7783 13.1396 20.9358 13.1396C21.0933 13.1396 21.2115 13.2578 21.2115 13.4154V14.4001C21.2115 14.5576 21.0933 14.6758 20.9358 14.6758Z" fill="black" fill-opacity="0.8"/>
<path d="M23.219 15.9362H5.73464C5.57712 15.9362 5.45898 15.818 5.45898 15.6605C5.45898 15.5029 5.57712 15.3848 5.73464 15.3848H23.219C23.3765 15.3848 23.4947 15.5029 23.4947 15.6605C23.4947 15.818 23.3372 15.9362 23.219 15.9362Z" fill="black" fill-opacity="0.8"/>
<path d="M7.94167 16.9209C7.78415 16.9209 7.66602 16.8027 7.66602 16.6452V15.6605C7.66602 15.5029 7.78415 15.3848 7.94167 15.3848C8.09919 15.3848 8.21734 15.5029 8.21734 15.6605V16.6452C8.21734 16.8027 8.09919 16.9209 7.94167 16.9209Z" fill="black" fill-opacity="0.8"/>
<path d="M20.9358 16.9209C20.7783 16.9209 20.6602 16.8027 20.6602 16.6452V15.6605C20.6602 15.5029 20.7783 15.3848 20.9358 15.3848C21.0933 15.3848 21.2115 15.5029 21.2115 15.6605V16.6452C21.2115 16.8027 21.0933 16.9209 20.9358 16.9209Z" fill="black" fill-opacity="0.8"/>
<path d="M23.219 18.1813H5.73464C5.57712 18.1813 5.45898 18.0631 5.45898 17.9056C5.45898 17.748 5.57712 17.6299 5.73464 17.6299H23.219C23.3765 17.6299 23.4947 17.748 23.4947 17.9056C23.4947 18.0631 23.3372 18.1813 23.219 18.1813Z" fill="black" fill-opacity="0.8"/>
<path d="M7.94167 19.166C7.78415 19.166 7.66602 19.0479 7.66602 18.8903V17.9056C7.66602 17.748 7.78415 17.6299 7.94167 17.6299C8.09919 17.6299 8.21734 17.748 8.21734 17.9056V18.8903C8.21734 19.0479 8.09919 19.166 7.94167 19.166Z" fill="black" fill-opacity="0.8"/>
<path d="M20.9358 19.166C20.7783 19.166 20.6602 19.0479 20.6602 18.8903V17.9056C20.6602 17.748 20.7783 17.6299 20.9358 17.6299C21.0933 17.6299 21.2115 17.748 21.2115 17.9056V18.8903C21.2115 19.0479 21.0933 19.166 20.9358 19.166Z" fill="black" fill-opacity="0.8"/>
<path d="M23.219 20.3864H5.73464C5.57712 20.3864 5.45898 20.2682 5.45898 20.1107C5.45898 19.9531 5.57712 19.835 5.73464 19.835H23.219C23.3765 19.835 23.4947 19.9531 23.4947 20.1107C23.4947 20.2682 23.3372 20.3864 23.219 20.3864Z" fill="black" fill-opacity="0.8"/>
<path d="M7.94167 21.3711C7.78415 21.3711 7.66602 21.2529 7.66602 21.0954V20.1107C7.66602 19.9531 7.78415 19.835 7.94167 19.835C8.09919 19.835 8.21734 19.9531 8.21734 20.1107V21.0954C8.21734 21.2529 8.09919 21.3711 7.94167 21.3711Z" fill="black" fill-opacity="0.8"/>
<path d="M20.9358 21.3711C20.7783 21.3711 20.6602 21.2529 20.6602 21.0954V20.1107C20.6602 19.9531 20.7783 19.835 20.9358 19.835C21.0933 19.835 21.2115 19.9531 21.2115 20.1107V21.0954C21.2115 21.2529 21.0933 21.3711 20.9358 21.3711Z" fill="black" fill-opacity="0.8"/>
<path d="M9.83036 4.78907C9.67284 4.78907 9.55469 4.67089 9.55469 4.51334V2.58333C9.55469 2.42578 9.67284 2.30762 9.83036 2.30762C9.98787 2.30762 10.106 2.42578 10.106 2.58333V4.51334C10.0666 4.67089 9.94849 4.78907 9.83036 4.78907Z" fill="black" fill-opacity="0.8"/>
<path d="M19.0862 4.78907C18.9287 4.78907 18.8105 4.67089 18.8105 4.51334V2.58333C18.8105 2.42578 18.9287 2.30762 19.0862 2.30762C19.2437 2.30762 19.3619 2.42578 19.3619 2.58333V4.51334C19.3619 4.67089 19.2437 4.78907 19.0862 4.78907Z" fill="black" fill-opacity="0.8"/>
<path d="M20.3854 25.5863C19.5191 25.5863 18.8496 24.8773 18.8496 24.0501C18.8496 23.8926 18.9677 23.7744 19.1253 23.7744H21.7243C21.8818 23.7744 22 23.8926 22 24.0501C21.9212 24.8773 21.2517 25.5863 20.3854 25.5863ZM19.3615 24.2864C19.4797 24.7197 19.8735 25.0742 20.346 25.0742C20.8186 25.0742 21.2517 24.7591 21.3305 24.2864H19.3615Z" fill="black" fill-opacity="0.8"/>
<path d="M20.385 24.2858C20.2275 24.2858 20.1094 24.1676 20.1094 24.0101V22.3558C20.1094 22.1982 20.2275 22.0801 20.385 22.0801C20.5425 22.0801 20.6607 22.1982 20.6607 22.3558V24.0101C20.6213 24.1676 20.5032 24.2858 20.385 24.2858Z" fill="black" fill-opacity="0.8"/>
</svg>
