<svg width="29" height="29" viewBox="0 0 29 29" fill="none" xmlns="http://www.w3.org/2000/svg">
<path d="M22.943 23.8135H5.97048C5.85234 23.8135 5.77358 23.7347 5.7342 23.656C5.69482 23.5378 5.7342 23.459 5.81296 23.3802C6.56117 22.75 6.99434 21.8441 6.99434 20.8594C6.99434 19.9141 6.56117 19.0081 5.81296 18.3385C5.7342 18.2598 5.69482 18.1416 5.7342 18.0628C5.77358 17.9447 5.85234 17.9053 5.97048 17.9053H22.943C23.0611 17.9053 23.1399 17.984 23.1793 18.0628C23.2187 18.181 23.1793 18.2598 23.1005 18.3385C22.3523 18.9687 21.9191 19.8747 21.9191 20.8594C21.9191 21.8047 22.3523 22.7106 23.1005 23.3802C23.1793 23.459 23.2187 23.5772 23.1793 23.656C23.1399 23.7347 23.0611 23.8135 22.943 23.8135ZM6.60055 23.3015H22.3523C21.7616 22.6319 21.4466 21.7653 21.4466 20.8594C21.4466 19.9535 21.7616 19.0869 22.3523 18.4173H6.60055C7.19124 19.0869 7.50627 19.9535 7.50627 20.8594C7.50627 21.7259 7.15186 22.5925 6.60055 23.3015Z" fill="black" fill-opacity="0.8"/>
<path d="M19.7948 21.0954H9.16238C9.00486 21.0954 8.88672 20.9772 8.88672 20.8197C8.88672 20.6621 9.00486 20.5439 9.16238 20.5439H19.7948C19.9523 20.5439 20.0704 20.6621 20.0704 20.8197C20.0311 20.9772 19.9129 21.0954 19.7948 21.0954Z" fill="black" fill-opacity="0.8"/>
<path d="M19.7948 18.4167H9.16238C9.00486 18.4167 8.88672 18.2985 8.88672 18.141V17.0775C8.88672 16.9199 9.00486 16.8018 9.16238 16.8018H19.7948C19.9523 16.8018 20.0704 16.9199 20.0704 17.0775V18.141C20.0311 18.2985 19.9129 18.4167 19.7948 18.4167ZM9.39865 17.8652H19.4797V17.3138H9.39865V17.8652Z" fill="black" fill-opacity="0.8"/>
<path d="M22.943 17.3535H5.97048C5.85234 17.3535 5.77358 17.2748 5.7342 17.196C5.69482 17.0778 5.7342 16.999 5.81296 16.9203C6.56117 16.2901 6.99434 15.3841 6.99434 14.3994C6.99434 13.4541 6.56117 12.5482 5.81296 11.8786C5.7342 11.7998 5.69482 11.6816 5.7342 11.6029C5.77358 11.4847 5.85234 11.4453 5.97048 11.4453H22.943C23.0611 11.4453 23.1399 11.5241 23.1793 11.6029C23.2187 11.721 23.1793 11.7998 23.1005 11.8786C22.3523 12.5088 21.9191 13.4147 21.9191 14.3994C21.9191 15.3447 22.3523 16.2507 23.1005 16.9203C23.1793 16.999 23.2187 17.1172 23.1793 17.196C23.1399 17.2748 23.0611 17.3535 22.943 17.3535ZM6.60055 16.8415H22.3523C21.7616 16.1719 21.4466 15.3053 21.4466 14.3994C21.4466 13.4935 21.7616 12.627 22.3523 11.9574H6.60055C7.19124 12.627 7.50627 13.4935 7.50627 14.3994C7.50627 15.266 7.15186 16.1325 6.60055 16.8415Z" fill="black" fill-opacity="0.8"/>
<path d="M19.7948 14.6364H9.16238C9.00486 14.6364 8.88672 14.5182 8.88672 14.3607C8.88672 14.2031 9.00486 14.085 9.16238 14.085H19.7948C19.9523 14.085 20.0704 14.2031 20.0704 14.3607C20.0311 14.5182 19.9129 14.6364 19.7948 14.6364Z" fill="black" fill-opacity="0.8"/>
<path d="M19.7948 11.9577H9.16238C9.00486 11.9577 8.88672 11.8395 8.88672 11.682V10.6185C8.88672 10.4609 9.00486 10.3428 9.16238 10.3428H19.7948C19.9523 10.3428 20.0704 10.4609 20.0704 10.6185V11.682C20.0311 11.8395 19.9129 11.9577 19.7948 11.9577ZM9.39865 11.4063H19.4797V10.8548H9.39865V11.4063Z" fill="black" fill-opacity="0.8"/>
<path d="M22.943 10.8936H5.97048C5.85234 10.8936 5.77358 10.8148 5.7342 10.736C5.69482 10.6179 5.7342 10.5391 5.81296 10.4603C6.56117 9.83008 6.99434 8.92416 6.99434 7.93946C6.99434 6.99414 6.56117 6.08822 5.81296 5.41862C5.7342 5.33985 5.69482 5.22168 5.7342 5.14291C5.77358 5.02474 5.85234 4.98535 5.97048 4.98535H22.943C23.0611 4.98535 23.1399 5.06413 23.1793 5.14291C23.2187 5.26107 23.1793 5.33985 23.1005 5.41862C22.3523 6.04883 21.9191 6.95475 21.9191 7.93946C21.9191 8.88477 22.3523 9.79069 23.1005 10.4603C23.1793 10.5391 23.2187 10.6572 23.1793 10.736C23.1399 10.8148 23.0611 10.8936 22.943 10.8936ZM6.60055 10.3815H22.3523C21.7616 9.71193 21.4466 8.84538 21.4466 7.93946C21.4466 7.03353 21.7616 6.167 22.3523 5.4974H6.60055C7.19124 6.167 7.50627 7.03353 7.50627 7.93946C7.50627 8.80599 7.15186 9.67254 6.60055 10.3815Z" fill="black" fill-opacity="0.8"/>
<path d="M19.7948 8.17643H9.16238C9.00486 8.17643 8.88672 8.05827 8.88672 7.90072C8.88672 7.74316 9.00486 7.625 9.16238 7.625H19.7948C19.9523 7.625 20.0704 7.74316 20.0704 7.90072C20.0311 8.05827 19.9129 8.17643 19.7948 8.17643Z" fill="black" fill-opacity="0.8"/>
<path d="M19.7948 5.49773H9.16238C9.00486 5.49773 8.88672 5.37957 8.88672 5.22201V4.15853C8.88672 4.00098 9.00486 3.88281 9.16238 3.88281H19.7948C19.9523 3.88281 20.0704 4.00098 20.0704 4.15853V5.22201C20.0311 5.37957 19.9129 5.49773 19.7948 5.49773ZM9.39865 4.9463H19.4797V4.39486H9.39865V4.9463Z" fill="black" fill-opacity="0.8"/>
<path d="M24.4421 28.5004C24.2846 28.5004 24.1665 28.3822 24.1665 28.2247V4.39486H4.75248V28.2247C4.75248 28.3822 4.63434 28.5004 4.47683 28.5004C4.31931 28.5004 4.20117 28.3822 4.20117 28.2247V4.15853C4.20117 4.00098 4.31931 3.88281 4.47683 3.88281H24.4027C24.5602 3.88281 24.6784 4.00098 24.6784 4.15853V28.2247C24.6784 28.3822 24.5996 28.5004 24.4421 28.5004Z" fill="black" fill-opacity="0.8"/>
<path d="M26.0563 26.334C25.8988 26.334 25.7806 26.2159 25.7806 26.0583V4.39486H3.09819V26.0583C3.09819 26.2159 2.98005 26.334 2.82253 26.334C2.66501 26.334 2.54688 26.2159 2.54688 26.0583V4.15853C2.54688 4.00098 2.66501 3.88281 2.82253 3.88281H26.0563C26.2138 3.88281 26.3319 4.00098 26.3319 4.15853V26.0583C26.3319 26.2159 26.2138 26.334 26.0563 26.334Z" fill="black" fill-opacity="0.8"/>
<path d="M27.9851 4.43457H0.97097C0.813453 4.43457 0.695312 4.31641 0.695312 4.15886V1.0472C0.695312 0.889647 0.813453 0.771484 0.97097 0.771484H27.9851C28.1427 0.771484 28.2608 0.889647 28.2608 1.0472V4.15886C28.2214 4.31641 28.1033 4.43457 27.9851 4.43457ZM1.20724 3.92253H27.7095V1.36231H1.20724V3.92253Z" fill="black" fill-opacity="0.8"/>
<path d="M20.0296 25.3493C19.872 25.3493 19.7539 25.2311 19.7539 25.0736V23.5374C19.7539 23.3799 19.872 23.2617 20.0296 23.2617C20.1871 23.2617 20.3052 23.3799 20.3052 23.5374V25.0736C20.2658 25.2311 20.1477 25.3493 20.0296 25.3493Z" fill="black" fill-opacity="0.8"/>
<path d="M20.9348 27.6737H19.0839C19.0052 27.6737 18.9264 27.6344 18.887 27.5556C18.8477 27.4768 18.8477 27.398 18.8477 27.3193L19.7534 24.9954C19.8321 24.7984 20.1472 24.7984 20.2259 24.9954L21.1317 27.3193C21.171 27.398 21.171 27.4768 21.0923 27.5556C21.0923 27.6344 21.0135 27.6737 20.9348 27.6737ZM19.4777 27.1617H20.541L19.9897 25.7831L19.4777 27.1617Z" fill="black" fill-opacity="0.8"/>
<path d="M8.92604 25.3493C8.76853 25.3493 8.65039 25.2311 8.65039 25.0736V23.5374C8.65039 23.3799 8.76853 23.2617 8.92604 23.2617C9.08356 23.2617 9.2017 23.3799 9.2017 23.5374V25.0736C9.16232 25.2311 9.04418 25.3493 8.92604 25.3493Z" fill="black" fill-opacity="0.8"/>
<path d="M9.83124 27.6737H7.98042C7.90166 27.6737 7.8229 27.6344 7.78352 27.5556C7.74414 27.4768 7.74414 27.398 7.74414 27.3193L8.64987 24.9954C8.72862 24.7984 9.04366 24.7984 9.12242 24.9954L10.0281 27.3193C10.0675 27.398 10.0675 27.4768 9.98876 27.5556C9.98876 27.6344 9.91 27.6737 9.83124 27.6737ZM8.37421 27.1617H9.43745L8.88614 25.7831L8.37421 27.1617Z" fill="black" fill-opacity="0.8"/>
</svg>
