<svg width="31" height="29" viewBox="0 0 31 29" fill="none" xmlns="http://www.w3.org/2000/svg">
<path d="M27.0407 25.3887H3.8069C3.64939 25.3887 3.53125 25.2705 3.53125 25.113V21.4105C3.53125 21.2529 3.64939 21.1348 3.8069 21.1348C3.96442 21.1348 4.08256 21.2529 4.08256 21.4105V24.8766H26.765V21.4105C26.765 21.2529 26.8831 21.1348 27.0407 21.1348C27.1982 21.1348 27.3163 21.2529 27.3163 21.4105V25.113C27.3163 25.2705 27.1982 25.3887 27.0407 25.3887Z" fill="black" fill-opacity="0.8"/>
<path d="M28.9695 28.5H1.95535C1.79783 28.5 1.67969 28.3819 1.67969 28.2243V25.1126C1.67969 24.9551 1.79783 24.8369 1.95535 24.8369H28.9695C29.127 24.8369 29.2452 24.9551 29.2452 25.1126V28.2243C29.2058 28.3819 29.0877 28.5 28.9695 28.5ZM2.19162 27.9486H28.6939V25.3884H2.19162V27.9486Z" fill="black" fill-opacity="0.8"/>
<path d="M28.9695 2.85905H1.95535C1.79783 2.85905 1.67969 2.74089 1.67969 2.58334V1.0472C1.67969 0.889651 1.79783 0.771484 1.95535 0.771484H28.9695C29.127 0.771484 29.2452 0.889651 29.2452 1.0472V2.58334C29.2058 2.74089 29.0877 2.85905 28.9695 2.85905ZM2.19162 2.34701H28.6939V1.32292H2.19162V2.34701Z" fill="black" fill-opacity="0.8"/>
<path d="M29.9147 4.43425H0.970974C0.813457 4.43425 0.695312 4.31609 0.695312 4.15853V2.6224C0.695312 2.46484 0.813457 2.34668 0.970974 2.34668H29.9147C30.0723 2.34668 30.1904 2.46484 30.1904 2.6224V4.15853C30.1904 4.31609 30.0723 4.43425 29.9147 4.43425ZM1.24663 3.88282H29.6785V2.85872H1.24663V3.88282Z" fill="black" fill-opacity="0.8"/>
<path d="M28.9695 5.97136H1.95535C1.79783 5.97136 1.67969 5.8532 1.67969 5.69564V4.1595C1.67969 4.00195 1.79783 3.88379 1.95535 3.88379H28.9695C29.127 3.88379 29.2452 4.00195 29.2452 4.1595V5.69564C29.2058 5.8532 29.0877 5.97136 28.9695 5.97136ZM2.19162 5.45931H28.6939V4.43522H2.19162V5.45931Z" fill="black" fill-opacity="0.8"/>
<path d="M29.9147 7.5075H0.970974C0.813457 7.5075 0.695312 7.38933 0.695312 7.23178V5.69565C0.695312 5.53809 0.813457 5.41992 0.970974 5.41992H29.9147C30.0723 5.41992 30.1904 5.53809 30.1904 5.69565V7.23178C30.1904 7.38933 30.0723 7.5075 29.9147 7.5075ZM1.24663 6.99545H29.6785V5.97136H1.24663V6.99545Z" fill="black" fill-opacity="0.8"/>
<path d="M28.9695 9.04264H1.95535C1.79783 9.04264 1.67969 8.92448 1.67969 8.76693V7.23079C1.67969 7.07324 1.79783 6.95508 1.95535 6.95508H28.9695C29.127 6.95508 29.2452 7.07324 29.2452 7.23079V8.76693C29.2058 8.96387 29.0877 9.04264 28.9695 9.04264ZM2.19162 8.5306H28.6939V7.50651H2.19162V8.5306Z" fill="black" fill-opacity="0.8"/>
<path d="M29.9147 10.6188H0.970974C0.813457 10.6188 0.695312 10.5007 0.695312 10.3431V8.80697C0.695312 8.64941 0.813457 8.53125 0.970974 8.53125H29.9147C30.0723 8.53125 30.1904 8.64941 30.1904 8.80697V10.3431C30.1904 10.5007 30.0723 10.6188 29.9147 10.6188ZM1.24663 10.1068H29.6785V9.04329H1.24663V10.1068Z" fill="black" fill-opacity="0.8"/>
<path d="M28.9695 12.155H1.95535C1.79783 12.155 1.67969 12.0368 1.67969 11.8792V10.3431C1.67969 10.1855 1.79783 10.0674 1.95535 10.0674H28.9695C29.127 10.0674 29.2452 10.1855 29.2452 10.3431V11.8792C29.2058 12.0368 29.0877 12.155 28.9695 12.155ZM2.19162 11.6429H28.6939V10.6188H2.19162V11.6429Z" fill="black" fill-opacity="0.8"/>
<path d="M29.9147 13.6911H0.970974C0.813457 13.6911 0.695312 13.5729 0.695312 13.4154V11.8792C0.695312 11.7217 0.813457 11.6035 0.970974 11.6035H29.9147C30.0723 11.6035 30.1904 11.7217 30.1904 11.8792V13.4154C30.1904 13.5729 30.0723 13.6911 29.9147 13.6911ZM1.24663 13.179H29.6785V12.1549H1.24663V13.179Z" fill="black" fill-opacity="0.8"/>
<path d="M28.9695 15.2663H1.95535C1.79783 15.2663 1.67969 15.1481 1.67969 14.9906V13.4544C1.67969 13.2969 1.79783 13.1787 1.95535 13.1787H28.9695C29.127 13.1787 29.2452 13.2969 29.2452 13.4544V14.9906C29.2058 15.1481 29.0877 15.2663 28.9695 15.2663ZM2.19162 14.7542H28.6939V13.7301H2.19162V14.7542Z" fill="black" fill-opacity="0.8"/>
<path d="M29.9147 16.8024H0.970974C0.813457 16.8024 0.695312 16.6843 0.695312 16.5267V14.9906C0.695312 14.833 0.813457 14.7148 0.970974 14.7148H29.9147C30.0723 14.7148 30.1904 14.833 30.1904 14.9906V16.5267C30.1904 16.6843 30.0723 16.8024 29.9147 16.8024ZM1.24663 16.2904H29.6785V15.2663H1.24663V16.2904Z" fill="black" fill-opacity="0.8"/>
<path d="M28.9695 18.3385H1.95535C1.79783 18.3385 1.67969 18.2204 1.67969 18.0628V16.5267C1.67969 16.3691 1.79783 16.251 1.95535 16.251H28.9695C29.127 16.251 29.2452 16.3691 29.2452 16.5267V18.0628C29.2058 18.2204 29.0877 18.3385 28.9695 18.3385ZM2.19162 17.8265H28.6939V16.8024H2.19162V17.8265Z" fill="black" fill-opacity="0.8"/>
<path d="M29.9147 19.9137H0.970974C0.813457 19.9137 0.695312 19.7956 0.695312 19.638V18.1019C0.695312 17.9443 0.813457 17.8262 0.970974 17.8262H29.9147C30.0723 17.8262 30.1904 17.9443 30.1904 18.1019V19.638C30.1904 19.7956 30.0723 19.9137 29.9147 19.9137ZM1.24663 19.4017H29.6785V18.3776H1.24663V19.4017Z" fill="black" fill-opacity="0.8"/>
</svg>
