<svg width="43" height="47" viewBox="0 0 43 47" fill="none" xmlns="http://www.w3.org/2000/svg">
<path d="M36.4085 46.4289C36.656 46.4289 36.8989 46.3495 37.1044 46.1813L41.6069 42.5196C41.8357 42.3328 41.9805 42.0665 42.0085 41.7723C42.0412 41.4827 41.9525 41.1885 41.7657 40.9596L30.4628 27.0366C32.303 24.6219 33.452 21.7495 33.7743 18.6529C34.232 14.2158 32.9382 9.86749 30.1266 6.40658C24.321 -0.739428 13.7842 -1.83235 6.63815 3.9732C3.17724 6.7849 1.01943 10.7783 0.557038 15.2106C0.0993196 19.6477 1.39307 23.996 4.20477 27.4569C7.01647 30.9178 11.0098 33.0803 15.4422 33.538C16.026 33.5988 16.6145 33.6268 17.1937 33.6268C19.6411 33.6268 22.0231 33.0897 24.2136 32.0668L35.5444 46.0179C35.7686 46.2888 36.0862 46.4289 36.4085 46.4289ZM15.6757 31.3335C11.8272 30.9365 8.36627 29.0636 5.92822 26.0604C3.49017 23.0619 2.36456 19.2881 2.76623 15.4395C3.16323 11.5909 5.03613 8.13003 8.03932 5.69665C10.7202 3.52015 13.9476 2.45993 17.1563 2.45993C21.3692 2.45993 25.5494 4.28613 28.4078 7.80308C30.8458 10.8063 31.9714 14.5801 31.5698 18.424C31.1728 22.2726 29.2999 25.7335 26.2967 28.1715C23.2935 30.6096 19.5196 31.7352 15.6757 31.3335ZM27.6932 29.8903C28.1462 29.526 28.5759 29.1383 28.9823 28.7273L39.3556 41.5014L36.572 43.762L26.1846 30.9786C26.703 30.6469 27.2074 30.2826 27.6932 29.8903Z" fill="white"/>
</svg>
