<svg width="61" height="47" viewBox="0 0 61 47" fill="none" xmlns="http://www.w3.org/2000/svg">
<path d="M58.7933 2.22666C58.779 2.20755 58.7599 2.18844 58.7455 2.17889C57.7996 1.23294 56.7438 0.750415 55.6402 0.75997C53.9107 0.769525 52.6781 1.96868 52.5778 2.06901L43.1183 11.5285C42.9798 11.667 42.9033 11.8486 42.9033 12.0397C42.9033 12.1065 42.9129 12.1639 42.932 12.226L42.3683 12.7897L42.1103 12.5317L41.1166 13.5255V0.559315H0.904297V46.1319H41.1166V25.9947L48.3449 18.7664L48.0869 18.5084L48.6507 17.9447C48.7128 17.959 48.7749 17.9733 48.837 17.9733C49.0233 17.9733 49.2096 17.9017 49.353 17.7583L58.6739 8.43742C58.7312 8.38009 60.088 7.07105 60.1167 5.25082C60.1406 4.16633 59.6963 3.1535 58.7933 2.22666ZM39.669 27.4471V44.6748H2.36621V2.01168H39.669V14.9778L31.5472 23.0996L32.1301 23.6824L31.9342 24.8195H8.76807C8.36676 24.8195 8.04189 25.1444 8.04189 25.5457C8.04189 25.947 8.36676 26.2718 8.76807 26.2718H31.6858L31.0695 29.8359L37.2229 28.7705L37.7866 29.3342L39.669 27.4471L40.3951 26.7209L39.669 27.4471ZM32.9566 29.1192L31.6093 29.3724L31.5138 29.3916L31.767 27.9296L32.0823 28.245L32.7607 24.3131L36.5923 28.1446L32.6651 28.823L32.9566 29.1192ZM37.7819 27.2751L33.6063 23.0996L42.1198 14.5861L46.2954 18.7664L37.7819 27.2751ZM47.3225 18.2504L42.631 13.5589L43.1135 13.0764L47.8051 17.7679L47.3225 18.2504ZM57.6658 7.39592L48.8466 16.2152L44.671 12.0349L53.6097 3.09139L53.6145 3.08661C53.6241 3.07706 54.5031 2.21233 55.645 2.21233C56.3568 2.21233 57.04 2.5372 57.6993 3.19172C57.7136 3.20605 57.7279 3.22038 57.7375 3.22994C58.3586 3.86057 58.6739 4.52942 58.6643 5.21738C58.6548 6.42131 57.685 7.37681 57.6658 7.39592Z" fill="white"/>
</svg>
