<svg width="45" height="48" viewBox="0 0 45 48" fill="none" xmlns="http://www.w3.org/2000/svg">
<path d="M13.6169 41.3116C12.4664 40.8155 11.5423 40.2941 10.9707 39.9454C10.6615 39.7548 10.4242 39.5966 10.2624 39.4888C10.1833 39.4348 10.1258 39.3917 10.0682 39.3522L10.0359 39.327C9.53253 38.9495 8.83501 39.0394 8.44312 39.5283C8.05841 40.0137 8.13392 40.7292 8.60851 41.1283C12.9014 44.6949 16.824 46.7011 20.5956 47.2692C21.3686 47.3843 22.1344 47.4418 22.9038 47.4418C23.9896 47.4418 25.0826 47.3267 26.1972 47.093C27.6785 46.7838 29.1921 46.2661 30.7993 45.5183L31.7053 46.8306C31.9462 47.1793 32.3597 47.3663 32.7803 47.3159C33.2046 47.2692 33.5605 46.9924 33.7187 46.5969L36.2139 40.2582C36.3434 39.9274 36.311 39.5463 36.1312 39.2479C35.9479 38.9387 35.6279 38.7337 35.2755 38.6942L28.4731 37.9248C28.0344 37.8744 27.6174 38.0758 27.3801 38.4425C27.1428 38.8093 27.1356 39.2838 27.3585 39.6542L28.0668 40.8406C26.2295 41.9444 24.2521 42.606 22.1775 42.8109C18.7619 43.1561 15.6339 42.1817 13.6169 41.3116ZM29.5157 41.7215C29.8537 41.4986 29.9544 41.0492 29.7458 40.7004L29.0375 39.5175L34.6284 40.1503L32.561 45.4032L31.6765 44.1232C31.4608 43.814 31.0546 43.7098 30.7202 43.8752C29.0052 44.7201 27.4268 45.2846 25.888 45.6081C24.1658 45.9677 22.5083 46.0216 20.8221 45.7699C18.5749 45.432 16.2523 44.5259 13.7967 43.0231C15.9647 43.868 19.0064 44.6554 22.3249 44.3282C24.8813 44.0729 27.2974 43.1956 29.5157 41.7215Z" fill="white"/>
<path d="M33.4589 8.06147C33.7681 8.25203 34.0054 8.41023 34.1672 8.51809C34.2463 8.57202 34.3038 8.61157 34.3541 8.64752L34.3937 8.67628C34.8971 9.0538 35.5946 8.96392 35.9865 8.47135C36.3784 7.97878 36.3029 7.27768 35.8211 6.87499C31.5282 3.30836 27.6056 1.30213 23.834 0.734061C21.968 0.453621 20.138 0.511147 18.2324 0.910236C16.7475 1.21944 15.2374 1.73718 13.6339 2.48502L12.7279 1.1727C12.487 0.823946 12.0735 0.63339 11.6528 0.683726C11.2286 0.734061 10.869 1.00731 10.7144 1.4064L8.21923 7.74508C8.0898 8.07585 8.12216 8.45697 8.30193 8.75538C8.48529 9.06099 8.80528 9.26593 9.15763 9.30548L15.9601 10.0749C16.0033 10.0785 16.0464 10.0821 16.0896 10.0821C16.4779 10.0821 16.841 9.88793 17.0531 9.55716C17.2868 9.19043 17.2976 8.71583 17.0747 8.34191L16.3664 7.15543C18.2072 6.05165 20.1811 5.3865 22.2556 5.18516C25.6713 4.84719 28.7993 5.81795 30.8163 6.69163C31.9668 7.19498 32.8872 7.71272 33.4589 8.06147ZM22.1046 3.67869C19.5519 3.93037 17.1322 4.80764 14.9174 6.28175C14.5795 6.50467 14.4788 6.95409 14.6873 7.30285L15.3956 8.48573L9.8048 7.85294L11.8722 2.60007L12.7566 3.88003C12.9687 4.18923 13.3786 4.2935 13.713 4.12811C15.4244 3.2832 17.0064 2.71872 18.5452 2.39513C20.271 2.03559 21.9249 1.98166 23.6111 2.23334C25.8582 2.57131 28.1809 3.47735 30.6365 4.98022C28.4649 4.1389 25.4232 3.35151 22.1046 3.67869Z" fill="white"/>
<path d="M8.57842 25.9234C10.2611 25.9234 11.843 25.269 13.0331 24.0754C14.2232 22.8853 14.8811 21.3033 14.8811 19.6207C14.8811 16.1475 12.0516 13.3215 8.58202 13.3215C6.89938 13.3215 5.3174 13.9759 4.12732 15.1696C2.93725 16.3596 2.2793 17.9416 2.2793 19.6243C2.2793 23.101 5.10527 25.9234 8.57842 25.9234ZM5.30302 16.3524C6.1803 15.4752 7.34161 14.9934 8.57842 14.9934C11.1312 14.9934 13.2093 17.0715 13.2129 19.6243C13.2129 20.8575 12.7311 22.0224 11.8538 22.8997C10.9766 23.7733 9.81524 24.2587 8.58202 24.2587H8.57842C6.02569 24.2587 3.94756 22.1806 3.94397 19.6279C3.94397 18.391 4.42575 17.2297 5.30302 16.3524Z" fill="white"/>
<path d="M16.5574 34.7608C16.5646 34.5343 16.7012 29.2131 13.3539 26.1499C13.0555 25.873 12.6025 25.8586 12.2825 26.1031C12.2465 26.1319 8.54686 28.9111 5.10607 26.1103C4.79327 25.855 4.34026 25.8622 4.03105 26.1283C3.89443 26.2469 0.672957 29.1089 0.593858 34.7249C0.590263 34.9478 0.676546 35.1635 0.834743 35.3217C0.992941 35.4835 1.20508 35.5698 1.42799 35.5698L15.7233 35.5662C16.1763 35.5662 16.543 35.2103 16.5574 34.7608ZM2.30167 33.9015C2.55694 30.7232 3.94117 28.717 4.67463 27.8613C7.68038 29.8567 10.909 28.9111 12.6816 27.8433C14.3786 29.7632 14.7741 32.5425 14.864 33.8979L2.30167 33.9015Z" fill="white"/>
<path d="M32.0026 15.1731C30.8126 16.3632 30.1582 17.9452 30.1582 19.6278C30.1582 23.101 32.9842 25.927 36.4573 25.927C38.14 25.927 39.7184 25.2726 40.9084 24.0789C42.1021 22.8889 42.7565 21.3069 42.7565 19.6242C42.7529 16.1511 39.9269 13.3251 36.4573 13.3251C34.7747 13.3251 33.1927 13.9795 32.0026 15.1731ZM41.0918 19.6242C41.0918 20.8575 40.61 22.0224 39.7327 22.8996C38.859 23.7733 37.6941 24.2587 36.4609 24.2587C33.9082 24.2587 31.8265 22.1806 31.8265 19.6278C31.8265 18.391 32.3082 17.2297 33.1855 16.3524C34.0628 15.4752 35.2241 14.9934 36.4609 14.9934C39.0101 14.9934 41.0882 17.0679 41.0918 19.6242Z" fill="white"/>
<path d="M41.2367 26.1535C40.9383 25.8767 40.4853 25.8623 40.1653 26.1068C40.1293 26.1355 36.4297 28.9148 32.9889 26.114C32.6725 25.8587 32.2195 25.8659 31.9139 26.1319C31.7772 26.2506 28.5558 29.1125 28.4767 34.7285C28.4731 34.9514 28.5594 35.1672 28.7176 35.3254C28.8758 35.4872 29.0879 35.5735 29.3108 35.5735L43.6061 35.5699C44.0555 35.5699 44.4258 35.2139 44.4402 34.7645C44.4474 34.538 44.5804 29.2168 41.2367 26.1535ZM30.1845 33.9016C30.4398 30.7233 31.8204 28.717 32.5574 27.8613C35.5632 29.8568 38.7919 28.9112 40.568 27.8434C42.2614 29.7633 42.6605 32.5425 42.7504 33.898L30.1845 33.9016Z" fill="white"/>
</svg>
