<svg width="33" height="36" viewBox="0 0 33 36" fill="none" xmlns="http://www.w3.org/2000/svg">
<path d="M19.5965 12.2987L16.3988 14.6541L13.2011 12.2987C13.0567 12.1543 12.8191 12.1543 12.6747 12.2987C12.5303 12.4431 12.5303 12.6808 12.6747 12.8252L16.0198 15.355V17.8548C16.0198 18.0594 16.1882 18.2248 16.3928 18.2248C16.5973 18.2248 16.7658 18.0594 16.7658 17.8548V15.367L20.1259 12.8252C20.2703 12.6808 20.2703 12.4431 20.1259 12.2987C19.9785 12.1543 19.7439 12.1543 19.5965 12.2987Z" fill="white"/>
<path d="M1.05665 16.8388L11.2844 16.8357C11.6063 16.8357 11.871 16.5801 11.88 16.2612C11.886 16.1018 11.9823 12.2934 9.59082 10.1005C9.37724 9.90494 9.05536 9.8899 8.82373 10.0674C8.79665 10.0884 6.14947 12.0768 3.68879 10.0734C3.46318 9.8899 3.14131 9.89592 2.92171 10.0854C2.82545 10.1697 0.518195 12.2182 0.46104 16.2341C0.458032 16.3935 0.521206 16.547 0.632508 16.6613C0.74381 16.7756 0.897218 16.8388 1.05665 16.8388ZM3.37896 11.3248C5.5298 12.7537 7.84006 12.0768 9.10951 11.3128C10.3218 12.6875 10.6076 14.6729 10.6707 15.6445L1.68235 15.6475C1.86284 13.3703 2.85253 11.9385 3.37896 11.3248Z" fill="white"/>
<path d="M32.0588 16.2612C32.0648 16.1018 32.1611 12.2934 29.7666 10.1005C29.553 9.90494 29.2311 9.8899 28.9995 10.0674C28.9724 10.0884 26.3253 12.0768 23.8646 10.0734C23.639 9.8899 23.3141 9.89592 23.0975 10.0854C22.9982 10.1697 20.694 12.2182 20.6368 16.2341C20.6338 16.3935 20.697 16.547 20.8083 16.6613C20.9196 16.7756 21.073 16.8388 21.2324 16.8388L31.4602 16.8357C31.7851 16.8357 32.0468 16.5831 32.0588 16.2612ZM21.8611 15.6475C22.0446 13.3734 23.0313 11.9385 23.5578 11.3248C25.7086 12.7537 28.0189 12.0768 29.2883 11.3128C30.5006 12.6875 30.7864 14.6729 30.8495 15.6445L21.8611 15.6475Z" fill="white"/>
<path d="M16.3988 19.5127C15.1955 19.5127 14.0645 19.982 13.2132 20.8333C12.3619 21.6876 11.8926 22.8187 11.8926 24.0219C11.8926 26.5067 13.9141 28.5251 16.3988 28.5251C17.6021 28.5251 18.7331 28.0559 19.5845 27.2046C20.4358 26.3502 20.905 25.2192 20.905 24.0189C20.905 21.5342 18.8835 19.5127 16.3988 19.5127ZM18.7422 26.3623C18.1165 26.988 17.2832 27.3339 16.3988 27.3339C14.5728 27.3339 13.0838 25.8479 13.0838 24.0219C13.0838 23.1375 13.4297 22.3043 14.0554 21.6786C14.6842 21.0499 15.5144 20.7069 16.3988 20.7069C18.2248 20.7069 19.7138 22.193 19.7138 24.0189C19.7138 24.9033 19.3679 25.7336 18.7422 26.3623Z" fill="white"/>
<path d="M6.1781 0.393555C4.97483 0.393555 3.84377 0.862828 2.99246 1.71414C2.14115 2.56846 1.67188 3.69952 1.67188 4.90279C1.67188 7.38753 3.69335 9.40601 6.1781 9.40601C7.38136 9.40601 8.51244 8.93674 9.36375 8.08542C10.2151 7.23111 10.6843 6.10004 10.6843 4.89978C10.6843 2.41504 8.66284 0.393555 6.1781 0.393555ZM8.52147 7.24314C7.89577 7.86884 7.0625 8.21478 6.1781 8.21478C4.35214 8.21478 2.86311 6.72874 2.86311 4.90279C2.86311 4.01839 3.20905 3.18513 3.83474 2.55943C4.46345 1.93072 5.2937 1.5878 6.1781 1.5878C8.00405 1.5878 9.4931 3.07383 9.4931 4.89978C9.4931 5.78418 9.14716 6.61443 8.52147 7.24314Z" fill="white"/>
<path d="M26.348 0.393555C25.1448 0.393555 24.0137 0.862828 23.1624 1.71414C22.3111 2.56846 21.8418 3.69952 21.8418 4.90279C21.8418 7.38753 23.8633 9.40601 26.348 9.40601C27.5513 9.40601 28.6824 8.93674 29.5337 8.08542C30.385 7.23111 30.8543 6.10004 30.8543 4.89978C30.8543 2.41504 28.8328 0.393555 26.348 0.393555ZM28.6914 7.24314C28.0657 7.86884 27.2324 8.21478 26.348 8.21478C24.5221 8.21478 23.033 6.72874 23.033 4.90279C23.033 4.01839 23.379 3.18513 24.0047 2.55943C24.6334 1.93072 25.4636 1.5878 26.348 1.5878C28.174 1.5878 29.663 3.07383 29.663 4.89978C29.663 5.78418 29.3171 6.61443 28.6914 7.24314Z" fill="white"/>
<path d="M11.2843 35.4288L21.512 35.4257C21.8339 35.4257 22.0986 35.1701 22.1077 34.8482C22.1107 34.6887 22.2099 30.8804 19.8154 28.6875C19.6019 28.4919 19.28 28.4799 19.0484 28.6544C19.0213 28.6754 16.3741 30.6638 13.9134 28.6574C13.6878 28.4739 13.3629 28.4799 13.1463 28.6694C13.0501 28.7536 10.7428 30.8022 10.6856 34.8181C10.6826 34.9775 10.7458 35.1309 10.8571 35.2453C10.9714 35.3626 11.1248 35.4288 11.2843 35.4288ZM13.6066 29.9118C15.7574 31.3407 18.0677 30.6638 19.3371 29.8998C20.5494 31.2745 20.8352 33.2599 20.8984 34.2315L11.91 34.2345C12.0935 31.9603 13.0802 30.5255 13.6066 29.9118Z" fill="white"/>
</svg>
