<svg width="29" height="37" viewBox="0 0 29 37" fill="none" xmlns="http://www.w3.org/2000/svg">
<path d="M0.894873 17.5099C0.546583 17.4831 0.244214 17.7242 0.194458 18.0649C0.144702 18.4055 0.366696 18.727 0.703505 18.7997C3.13388 19.3317 5.33079 19.5728 7.32868 19.5728C16.7823 19.569 21.6775 14.1609 25.1566 8.41607L27.2616 9.6791C27.4798 9.80923 27.7554 9.80157 27.9697 9.65996C28.1802 9.51452 28.2912 9.26192 28.2453 9.00931L26.8942 1.01011C26.8598 0.814909 26.7373 0.642678 26.5612 0.546994C26.3852 0.451309 26.1747 0.439827 25.9909 0.520202L18.8338 3.55531C18.5965 3.65482 18.4395 3.88446 18.4357 4.14089C18.4281 4.39733 18.5735 4.63463 18.8031 4.74945L20.9618 5.80197C15.1978 18.4782 1.48429 17.5558 0.894873 17.5099ZM22.4085 5.74456C22.5425 5.42306 22.4047 5.05564 22.0909 4.89871L20.6594 4.20213L25.7307 2.05115L26.7067 7.82665L25.2599 6.95784C25.1106 6.86981 24.9308 6.84302 24.7624 6.88512C24.594 6.92722 24.4485 7.03821 24.3605 7.18748C20.8508 13.1505 16.2579 18.4553 6.89236 18.2677C11.9521 17.1922 18.8606 14.1533 22.4085 5.74456Z" fill="white"/>
<path d="M2.99649 25.873C1.73346 25.873 0.742188 27.1093 0.742188 28.6862V33.6158C0.742188 35.1927 1.73346 36.4289 2.99649 36.4289H6.08135C7.34821 36.4289 8.33951 35.1927 8.33951 33.6158V28.6862C8.33951 27.1093 7.34821 25.873 6.08135 25.873H2.99649ZM7.0267 28.6862V33.6158C7.0267 34.4157 6.58656 35.1161 6.08135 35.1161H2.99649C2.49128 35.1161 2.05114 34.4157 2.05114 33.6158V28.6862C2.05114 27.8862 2.49128 27.1858 2.99649 27.1858H6.08135C6.58656 27.182 7.0267 27.8862 7.0267 28.6862Z" fill="white"/>
<path d="M12.3246 21.249C11.0616 21.249 10.0703 22.4853 10.0703 24.0621V33.6114C10.0703 35.1883 11.0616 36.4245 12.3246 36.4245H15.4095C16.6763 36.4245 17.6676 35.1883 17.6676 33.6114V24.0621C17.6676 22.4853 16.6763 21.249 15.4095 21.249H12.3246ZM16.3548 24.0621V33.6114C16.3548 34.4114 15.9147 35.1118 15.4095 35.1118H12.3246C11.8194 35.1118 11.3792 34.4114 11.3792 33.6114V24.0621C11.3792 23.2622 11.8194 22.5618 12.3246 22.5618H15.4095C15.9147 22.5618 16.3548 23.2622 16.3548 24.0621Z" fill="white"/>
<path d="M25.6535 15.7031H22.5687C21.3018 15.7031 20.3105 16.9394 20.3105 18.5162V33.6114C20.3105 35.1883 21.3018 36.4245 22.5687 36.4245H25.6535C26.9204 36.4245 27.9117 35.1883 27.9117 33.6114V18.5162C27.9117 16.9394 26.9204 15.7031 25.6535 15.7031ZM26.5989 33.6152C26.5989 34.4151 26.1588 35.1155 25.6535 35.1155H22.5687C22.0635 35.1155 21.6233 34.4151 21.6233 33.6152V18.5162C21.6233 17.7163 22.0635 17.0159 22.5687 17.0159H25.6535C26.1588 17.0159 26.5989 17.7163 26.5989 18.5162V33.6152Z" fill="white"/>
</svg>
