<svg width="59" height="44" viewBox="0 0 59 44" fill="none" xmlns="http://www.w3.org/2000/svg">
<path d="M50.2901 1.44084H36.0388C34.7549 1.44084 33.5828 1.92033 32.6878 2.70881V0.146244H3.06646V26.1501C1.63867 26.7202 0.621094 28.116 0.621094 29.7462V32.9375C0.621094 35.0738 2.35789 36.8106 4.49425 36.8106H7.85061C7.85061 36.8372 7.84528 36.8692 7.84528 36.8958C7.84528 40.7477 10.9779 43.875 14.8244 43.875C18.6709 43.875 21.8035 40.7424 21.8035 36.8958C21.8035 36.8692 21.7982 36.8372 21.7982 36.8106H39.9812C39.9812 36.8372 39.9759 36.8692 39.9759 36.8958C39.9759 40.7477 43.1085 43.875 46.955 43.875C50.8015 43.875 53.9341 40.7424 53.9341 36.8958C53.9341 36.5922 53.9075 36.2938 53.8702 36.0008C56.7364 34.6529 58.7289 31.7441 58.7289 28.3717V9.87972C58.7289 5.22875 54.9464 1.44084 50.2901 1.44084ZM4.79793 1.88303H30.951V6.52868V25.8784H4.79793V1.88303ZM14.8244 42.1488C11.9316 42.1488 9.58208 39.7994 9.58208 36.9065C9.58208 34.0136 11.9369 31.6642 14.8244 31.6642C17.7173 31.6642 20.0667 34.0136 20.0667 36.9065C20.0721 39.794 17.7173 42.1488 14.8244 42.1488ZM46.955 42.1488C44.0621 42.1488 41.7127 39.7994 41.7127 36.9065C41.7127 34.0136 44.0675 31.6642 46.955 31.6642C49.8479 31.6642 52.1973 34.0136 52.1973 36.9065C52.1973 39.794 49.8479 42.1488 46.955 42.1488ZM56.9975 28.3771C56.9975 30.9449 55.5484 33.1719 53.428 34.3013C52.3945 31.7441 49.8852 29.9274 46.9604 29.9274C43.7425 29.9274 41.0361 32.117 40.2316 35.0845H21.5585C20.754 32.1223 18.0476 29.9274 14.8298 29.9274C11.6119 29.9274 8.90549 32.117 8.10103 35.0845H4.49425C3.31686 35.0845 2.35789 34.1255 2.35789 32.9481V29.7569C2.35789 28.5795 3.31686 27.6205 4.49425 27.6205H32.6878V6.52868C32.6878 4.68001 34.1902 3.17763 36.0388 3.17763H50.2954C53.9927 3.17763 56.9975 6.18771 56.9975 9.87972V28.3771Z" fill="white"/>
<path d="M14.8241 33.5395C12.9701 33.5395 11.457 35.0472 11.457 36.9012C11.457 38.7605 12.9647 40.2682 14.8241 40.2682C16.6781 40.2682 18.1858 38.7605 18.1858 36.9012C18.1911 35.0472 16.6834 33.5395 14.8241 33.5395ZM14.8241 38.5314C13.9237 38.5314 13.1938 37.8016 13.1938 36.9012C13.1938 36.0008 13.9237 35.271 14.8241 35.271C15.7244 35.271 16.4543 36.0008 16.4543 36.9012C16.4543 37.8016 15.7244 38.5314 14.8241 38.5314Z" fill="white"/>
<path d="M46.9554 33.5395C45.1015 33.5395 43.5938 35.0472 43.5938 36.9012C43.5938 38.7605 45.1015 40.2682 46.9554 40.2682C48.8094 40.2682 50.3225 38.7605 50.3225 36.9012C50.3225 35.0472 48.8148 33.5395 46.9554 33.5395ZM46.9554 38.5314C46.0551 38.5314 45.3252 37.8016 45.3252 36.9012C45.3252 36.0008 46.0551 35.271 46.9554 35.271C47.8558 35.271 48.5857 36.0008 48.5857 36.9012C48.5857 37.8016 47.8558 38.5314 46.9554 38.5314Z" fill="white"/>
<path d="M49.3893 8.67565H45.3297V8.62238H35.6016V13.2201V16.4113V20.961H40.146H45.3297H49.3893C51.8986 20.961 53.9391 18.9206 53.9391 16.4113V13.2201C53.9337 10.7161 51.8933 8.67565 49.3893 8.67565ZM52.1969 16.4166C52.1969 17.9669 50.9343 19.2296 49.384 19.2296H45.3244H44.456H43.5876H40.1406H37.7699H37.3277V18.7874V16.4166V13.2254V10.8546V10.3592H37.8338H43.5876V10.4124H44.456H45.3244H49.384C50.9343 10.4124 52.1969 11.6751 52.1969 13.2254V16.4166Z" fill="white"/>
</svg>
