<svg width="100" height="13" viewBox="0 0 100 13" fill="none" xmlns="http://www.w3.org/2000/svg">
<path d="M5.67285 5.1875L8.99316 0.835938H10.8057L6.37598 6.54688L9.02441 12.2109H7.37598L5.36035 7.78125L1.93848 12.2109H0.125977L4.64941 6.40625L2.07129 0.835938H3.69629L5.67285 5.1875ZM13.9775 12.3672C12.9255 12.3464 12.1025 11.9583 11.5088 11.2031C10.915 10.4479 10.665 9.48177 10.7588 8.30469L10.7979 7.96875C10.8864 7.13021 11.1338 6.36458 11.54 5.67188C11.9515 4.97917 12.4515 4.45833 13.04 4.10938C13.6286 3.75521 14.264 3.58594 14.9463 3.60156C15.8161 3.6224 16.4984 3.91146 16.9932 4.46875C17.488 5.02604 17.7588 5.78125 17.8057 6.73438C17.8213 7.07292 17.8109 7.41146 17.7744 7.75L17.6885 8.39844H12.165C12.0713 9.16406 12.1963 9.8151 12.54 10.3516C12.889 10.888 13.4072 11.1667 14.0947 11.1875C14.9281 11.2083 15.6989 10.8333 16.4072 10.0625L17.2197 10.75C16.8656 11.2604 16.4072 11.6615 15.8447 11.9531C15.2874 12.2396 14.665 12.3776 13.9775 12.3672ZM14.876 4.78125C14.2926 4.76562 13.7822 4.96354 13.3447 5.375C12.9124 5.78646 12.5687 6.39844 12.3135 7.21094L16.4229 7.21875L16.4541 7.09375C16.5374 6.4375 16.4307 5.89323 16.1338 5.46094C15.8421 5.02344 15.4229 4.79688 14.876 4.78125ZM21.4072 3.75L21.2275 4.69531C21.9359 3.94531 22.7926 3.58073 23.7979 3.60156C24.3343 3.61198 24.7874 3.73438 25.1572 3.96875C25.5322 4.20312 25.79 4.53385 25.9307 4.96094C26.7223 4.03385 27.6572 3.58073 28.7354 3.60156C29.5791 3.6224 30.2015 3.90625 30.6025 4.45312C31.0036 5 31.152 5.73438 31.0479 6.65625L30.1182 12.2109H28.7119L29.6338 6.64062C29.665 6.36979 29.665 6.1224 29.6338 5.89844C29.5348 5.1901 29.0713 4.82812 28.2432 4.8125C27.7275 4.80208 27.2588 4.96354 26.8369 5.29688C26.4202 5.625 26.152 6.05729 26.0322 6.59375L25.0713 12.2109H23.6494L24.5869 6.64844C24.6546 6.07031 24.5661 5.625 24.3213 5.3125C24.0817 5 23.7067 4.83854 23.1963 4.82812C22.3161 4.80729 21.6156 5.20833 21.0947 6.03125L20.0244 12.2109H18.6104L20.0791 3.75781L21.4072 3.75ZM39.9619 1.71094L39.6025 3.75781H41.1416L40.9463 4.875H39.415L38.5322 10.1328C38.5166 10.2682 38.514 10.3932 38.5244 10.5078C38.5609 10.9141 38.7822 11.1172 39.1885 11.1172C39.3604 11.1172 39.5895 11.0911 39.876 11.0391L39.7666 12.2188C39.4281 12.3125 39.0843 12.3594 38.7354 12.3594C38.1729 12.349 37.751 12.1432 37.4697 11.7422C37.1885 11.3359 37.0791 10.7917 37.1416 10.1094L38.001 4.875H36.5088L36.7041 3.75781H38.1963L38.5557 1.71094H39.9619ZM44.0244 4.78906C44.764 3.98177 45.6156 3.58854 46.5791 3.60938C47.3708 3.61979 47.9567 3.89323 48.3369 4.42969C48.7223 4.96094 48.8656 5.70833 48.7666 6.67188L47.8447 12.2109H46.4307L47.3604 6.64844C47.3916 6.39323 47.3942 6.15625 47.3682 5.9375C47.2796 5.20833 46.8499 4.83594 46.0791 4.82031C45.2145 4.79948 44.4697 5.2526 43.8447 6.17969L42.7979 12.2109H41.3838L43.4697 0.210938H44.8838L44.0244 4.78906ZM53.665 12.3672C52.613 12.3464 51.79 11.9583 51.1963 11.2031C50.6025 10.4479 50.3525 9.48177 50.4463 8.30469L50.4854 7.96875C50.5739 7.13021 50.8213 6.36458 51.2275 5.67188C51.639 4.97917 52.139 4.45833 52.7275 4.10938C53.3161 3.75521 53.9515 3.58594 54.6338 3.60156C55.5036 3.6224 56.1859 3.91146 56.6807 4.46875C57.1755 5.02604 57.4463 5.78125 57.4932 6.73438C57.5088 7.07292 57.4984 7.41146 57.4619 7.75L57.376 8.39844H51.8525C51.7588 9.16406 51.8838 9.8151 52.2275 10.3516C52.5765 10.888 53.0947 11.1667 53.7822 11.1875C54.6156 11.2083 55.3864 10.8333 56.0947 10.0625L56.9072 10.75C56.5531 11.2604 56.0947 11.6615 55.5322 11.9531C54.9749 12.2396 54.3525 12.3776 53.665 12.3672ZM54.5635 4.78125C53.9801 4.76562 53.4697 4.96354 53.0322 5.375C52.5999 5.78646 52.2562 6.39844 52.001 7.21094L56.1104 7.21875L56.1416 7.09375C56.2249 6.4375 56.1182 5.89323 55.8213 5.46094C55.5296 5.02344 55.1104 4.79688 54.5635 4.78125ZM57.1729 2.33594V2.44531L56.0244 2.42969L55.1416 1.10938L53.7666 2.42188L52.5713 2.44531V2.32031L54.7432 0.210938H55.5713L57.1729 2.33594ZM61.0947 3.75L60.915 4.69531C61.6234 3.94531 62.4801 3.58073 63.4854 3.60156C64.0218 3.61198 64.4749 3.73438 64.8447 3.96875C65.2197 4.20312 65.4775 4.53385 65.6182 4.96094C66.4098 4.03385 67.3447 3.58073 68.4229 3.60156C69.2666 3.6224 69.889 3.90625 70.29 4.45312C70.6911 5 70.8395 5.73438 70.7354 6.65625L69.8057 12.2109H68.3994L69.3213 6.64062C69.3525 6.36979 69.3525 6.1224 69.3213 5.89844C69.2223 5.1901 68.7588 4.82812 67.9307 4.8125C67.415 4.80208 66.9463 4.96354 66.5244 5.29688C66.1077 5.625 65.8395 6.05729 65.7197 6.59375L64.7588 12.2109H63.3369L64.2744 6.64844C64.3421 6.07031 64.2536 5.625 64.0088 5.3125C63.7692 5 63.3942 4.83854 62.8838 4.82812C62.0036 4.80729 61.3031 5.20833 60.7822 6.03125L59.7119 12.2109H58.2979L59.7666 3.75781L61.0947 3.75ZM81.7744 7.10156L77.1025 5.07812L77.3604 3.65625L83.3291 6.61719L83.126 7.75L76.126 10.7188L76.4072 9.14844L81.7744 7.10156ZM89.9619 7.10156L85.29 5.07812L85.5479 3.65625L91.5166 6.61719L91.3135 7.75L84.3135 10.7188L84.5947 9.14844L89.9619 7.10156ZM98.1494 7.10156L93.4775 5.07812L93.7354 3.65625L99.7041 6.61719L99.501 7.75L92.501 10.7188L92.7822 9.14844L98.1494 7.10156Z" fill="#14469D" fill-opacity="0.8"/>
</svg>
