<svg width="17" height="17" viewBox="0 0 17 17" fill="none" xmlns="http://www.w3.org/2000/svg">
<path d="M8.49261 0.817017C4.09184 0.817017 0.491211 4.41765 0.491211 8.81842C0.491211 13.2192 4.09184 16.8198 8.49261 16.8198C12.8934 16.8198 16.494 13.2192 16.494 8.81842C16.494 4.41765 12.8934 0.817017 8.49261 0.817017ZM8.49261 15.2195C4.964 15.2195 2.09149 12.347 2.09149 8.81842C2.09149 5.2898 4.964 2.4173 8.49261 2.4173C12.0212 2.4173 14.8937 5.2898 14.8937 8.81842C14.8937 12.347 12.0212 15.2195 8.49261 15.2195ZM8.89268 4.81772H7.69247V9.61856L11.8532 12.179L12.4933 11.1388L8.89268 8.97845V4.81772Z" fill="black" fill-opacity="0.5"/>
</svg>
