<svg width="29" height="31" viewBox="0 0 29 31" fill="none" xmlns="http://www.w3.org/2000/svg">
<path d="M12.1918 1.01578C12.7514 0.522116 13.4772 0.249023 14.2295 0.249023C14.9819 0.249023 15.7076 0.522116 16.2672 1.01578L27.4468 10.8785C27.7646 11.1591 28.0188 11.5022 28.1929 11.8856C28.3669 12.2689 28.4569 12.6839 28.457 13.1037V27.1832C28.457 27.9772 28.1358 28.7386 27.564 29.3C26.9922 29.8614 26.2167 30.1768 25.408 30.1768H20.3264C19.5178 30.1768 18.7423 29.8614 18.1705 29.3C17.5987 28.7386 17.2775 27.9772 17.2775 27.1832V20.1983C17.2775 19.9337 17.1704 19.6799 16.9798 19.4927C16.7892 19.3056 16.5307 19.2005 16.2612 19.2005H12.1959C11.9263 19.2005 11.6678 19.3056 11.4772 19.4927C11.2866 19.6799 11.1795 19.9337 11.1795 20.1983V27.1832C11.1795 27.9772 10.8583 28.7386 10.2865 29.3C9.71473 29.8614 8.93921 30.1768 8.13058 30.1768H3.04897C2.24033 30.1768 1.46481 29.8614 0.893021 29.3C0.321229 28.7386 0 27.9772 0 27.1832V13.1037C0 12.2555 0.365876 11.4472 1.01226 10.8785L12.1918 1.01578ZM14.9074 2.50057C14.7209 2.3362 14.4791 2.24528 14.2285 2.24528C13.9779 2.24528 13.7361 2.3362 13.5496 2.50057L2.37006 12.3633C2.26416 12.4566 2.1794 12.5707 2.12127 12.6983C2.06315 12.8258 2.03295 12.9639 2.03264 13.1037V27.1832C2.03264 27.4479 2.13972 27.7017 2.33032 27.8888C2.52092 28.0759 2.77942 28.1811 3.04897 28.1811H8.13058C8.40012 28.1811 8.65863 28.0759 8.84922 27.8888C9.03982 27.7017 9.1469 27.4479 9.1469 27.1832V20.1983C9.1469 19.4044 9.46813 18.643 10.0399 18.0816C10.6117 17.5202 11.3872 17.2048 12.1959 17.2048H16.2612C17.0698 17.2048 17.8453 17.5202 18.4171 18.0816C18.9889 18.643 19.3101 19.4044 19.3101 20.1983V27.1832C19.3101 27.4479 19.4172 27.7017 19.6078 27.8888C19.7984 28.0759 20.0569 28.1811 20.3264 28.1811H25.408C25.6776 28.1811 25.9361 28.0759 26.1267 27.8888C26.3173 27.7017 26.4244 27.4479 26.4244 27.1832V13.1037C26.4241 12.9639 26.3939 12.8258 26.3357 12.6983C26.2776 12.5707 26.1929 12.4566 26.087 12.3633L14.9074 2.50057Z" fill="black" fill-opacity="0.6"/>
</svg>
